<?xml version="1.0" standalone="no"?>
<!DOCTYPE svg PUBLIC "-//W3C//DTD SVG 20010904//EN"
 "http://www.w3.org/TR/2001/REC-SVG-20010904/DTD/svg10.dtd">
<svg version="1.0" xmlns="http://www.w3.org/2000/svg"
 width="2224.000000pt" height="1668.000000pt" viewBox="0 0 2224.000000 1668.000000"
 preserveAspectRatio="xMidYMid meet">
<metadata>
Created by potrace 1.16, written by Peter Selinger 2001-2019
</metadata>
<g transform="translate(0.000000,1668.000000) scale(0.100000,-0.100000)"
fill="#000000" stroke="none">
<path d="M0 8340 l0 -8340 11120 0 11120 0 0 8340 0 8340 -11120 0 -11120 0 0
-8340z m12804 6685 c3 -9 18 -15 36 -15 16 0 30 -4 30 -10 0 -5 11 -10 25 -10
14 0 25 -4 25 -10 0 -5 11 -10 25 -10 16 0 25 -6 25 -15 0 -8 9 -15 20 -15 24
0 80 -54 80 -76 0 -15 23 -44 35 -44 14 0 35 -30 35 -49 0 -12 5 -21 10 -21 6
0 10 -11 10 -25 0 -16 6 -25 15 -25 10 0 15 -11 15 -35 0 -19 5 -35 10 -35 6
0 10 -11 10 -25 0 -16 6 -25 15 -25 10 0 15 -11 15 -35 0 -19 5 -35 10 -35 6
0 10 -11 10 -25 0 -14 4 -25 9 -25 5 0 11 -10 13 -22 2 -15 11 -24 26 -26 12
-2 22 -8 22 -13 0 -5 16 -9 35 -9 22 0 38 -6 41 -15 4 -8 15 -15 25 -15 10 0
19 -4 19 -10 0 -5 7 -10 15 -10 8 0 15 -5 15 -11 0 -6 6 -17 14 -25 8 -8 19
-14 25 -14 6 0 11 -6 11 -13 0 -7 11 -21 25 -31 14 -10 25 -27 25 -37 0 -11 5
-19 10 -19 6 0 10 -16 10 -35 0 -19 5 -35 10 -35 6 0 10 -11 10 -25 0 -16 6
-25 15 -25 12 0 15 -18 15 -105 0 -85 -3 -107 -15 -111 -12 -5 -15 -27 -15
-110 0 -63 -4 -104 -10 -104 -5 0 -10 -18 -10 -40 0 -22 -4 -40 -10 -40 -5 0
-10 -20 -10 -45 0 -33 -4 -45 -15 -45 -11 0 -15 -11 -15 -35 0 -22 6 -38 15
-41 13 -5 15 -36 15 -195 0 -161 -2 -189 -15 -189 -11 0 -15 -12 -15 -50 0
-27 -4 -50 -10 -50 -5 0 -10 -15 -10 -34 0 -21 -6 -36 -15 -40 -9 -3 -15 -18
-15 -36 0 -16 -4 -30 -10 -30 -5 0 -10 -18 -10 -40 0 -29 -4 -40 -15 -40 -9 0
-15 -9 -15 -25 0 -14 -3 -25 -8 -25 -4 0 -7 26 -7 58 -1 89 -12 127 -57 183
-30 39 -56 59 -105 81 -61 27 -64 31 -58 55 31 124 24 299 -15 412 -21 58 -19
67 26 126 46 61 75 176 85 339 10 153 6 221 -13 232 -6 4 -31 -17 -56 -45 -52
-60 -175 -146 -197 -137 -9 3 -15 18 -15 39 0 64 -32 219 -65 315 -102 299
-129 351 -204 396 -97 56 -94 57 -86 -23 6 -59 2 -87 -24 -192 -37 -146 -64
-210 -140 -339 -58 -98 -76 -129 -110 -192 -11 -20 -48 -60 -82 -90 -34 -29
-83 -75 -108 -102 -25 -27 -80 -73 -121 -103 -41 -30 -102 -77 -135 -105 -33
-27 -103 -71 -155 -97 l-95 -46 -110 0 c-101 0 -208 13 -405 50 -51 10 -169
15 -365 17 l-290 3 -130 -33 c-137 -36 -170 -51 -304 -144 -46 -32 -90 -58
-97 -58 -7 0 -55 36 -107 80 -147 123 -228 250 -300 465 -55 167 -87 330 -87
440 0 83 19 229 35 282 6 18 4 21 -14 16 -29 -7 -60 -39 -123 -124 -81 -109
-99 -141 -168 -289 -42 -93 -67 -164 -81 -229 -10 -51 -19 -95 -19 -97 0 -2
-4 -4 -10 -4 -9 0 -43 100 -55 164 -11 58 -30 64 -59 19 -37 -57 -136 -362
-136 -420 0 -27 -9 -67 -21 -93 -54 -115 -91 -222 -105 -300 -28 -159 -44
-265 -44 -296 0 -29 -3 -32 -38 -38 -60 -9 -127 -60 -163 -122 -27 -48 -31
-65 -32 -129 0 -66 3 -79 34 -132 40 -67 113 -118 186 -129 47 -7 52 -11 70
-64 14 -39 7 -52 -35 -68 -37 -15 -303 -62 -347 -62 -19 0 -35 -5 -35 -11 0
-10 38 -55 74 -87 76 -67 95 -81 125 -89 l34 -9 -74 -35 c-97 -47 -130 -70
-228 -160 -82 -75 -127 -137 -141 -196 -9 -39 -6 -40 31 -9 16 14 54 34 84 45
68 26 138 61 188 95 38 26 38 26 31 4 -12 -39 -41 -73 -101 -119 -32 -24 -83
-64 -113 -90 -60 -51 -247 -179 -261 -179 -20 0 -7 -35 25 -64 32 -31 92 -56
135 -56 33 0 25 -16 -25 -50 -77 -52 -175 -97 -251 -115 -40 -10 -78 -24 -84
-31 -7 -9 -8 -14 -1 -14 5 0 32 -18 58 -40 27 -23 68 -52 91 -65 61 -37 205
-85 252 -85 35 0 127 17 201 36 l25 7 -25 -20 c-14 -11 -65 -42 -113 -69 -83
-46 -167 -120 -167 -148 0 -7 30 -11 93 -11 98 0 106 -3 232 -86 94 -63 198
-126 255 -156 36 -19 74 -43 85 -52 11 -10 47 -35 80 -56 33 -21 89 -64 125
-95 108 -93 145 -119 217 -152 37 -17 104 -59 148 -92 44 -33 82 -62 83 -63
26 -14 -94 -110 -258 -207 -36 -22 -87 -54 -115 -72 -27 -18 -81 -49 -120 -69
-38 -20 -85 -48 -104 -63 -31 -23 -33 -27 -17 -36 10 -6 33 -23 52 -37 25 -20
51 -28 97 -33 l64 -7 -30 -60 c-16 -32 -55 -87 -86 -121 -31 -35 -74 -85 -96
-113 -64 -82 -343 -354 -450 -440 -55 -43 -131 -107 -170 -140 -73 -64 -104
-86 -242 -175 -46 -29 -83 -56 -83 -61 0 -13 2 -12 51 15 36 19 63 25 154 29
61 3 122 10 135 16 36 14 290 91 303 91 7 0 -2 -10 -18 -21 -17 -12 -57 -55
-90 -95 -33 -40 -74 -84 -92 -98 -18 -15 -63 -64 -102 -109 -38 -46 -88 -101
-111 -123 -23 -21 -69 -73 -103 -114 -100 -124 -211 -243 -432 -465 -209 -210
-309 -301 -354 -325 -36 -19 -9 -36 77 -48 41 -6 81 -17 90 -25 45 -39 172
-27 280 26 40 20 72 31 72 26 0 -14 -29 -70 -46 -90 -8 -8 -36 -57 -63 -109
-27 -51 -74 -121 -104 -155 -30 -33 -74 -90 -98 -125 -24 -36 -78 -101 -120
-145 -71 -74 -106 -126 -124 -183 -6 -20 -4 -22 12 -13 10 5 56 17 103 26 57
10 112 29 167 57 77 40 109 45 86 16 -28 -36 -64 -170 -73 -273 -5 -60 -17
-164 -25 -230 -26 -196 -36 -304 -40 -420 -4 -122 10 -381 25 -435 5 -19 18
-69 28 -110 36 -141 77 -263 132 -390 18 -41 40 -93 48 -115 9 -22 58 -103
109 -179 51 -77 93 -147 94 -155 0 -15 29 -75 107 -224 26 -50 71 -101 216
-243 101 -98 216 -203 256 -232 69 -51 77 -54 146 -59 82 -6 62 8 195 -140 16
-18 37 -33 46 -33 14 0 15 2 1 18 -9 9 -13 23 -11 30 3 7 -17 50 -45 95 -27
46 -53 94 -57 107 -4 14 -23 59 -42 102 l-35 76 23 31 c12 17 27 31 32 31 5 0
27 -15 50 -33 52 -40 79 -54 137 -67 68 -15 87 -12 116 15 52 48 69 32 93 -86
11 -51 25 -164 31 -249 6 -85 16 -184 21 -220 5 -36 12 -144 15 -240 6 -162 4
-185 -20 -304 -14 -71 -26 -135 -26 -143 0 -21 21 -15 27 7 4 14 14 20 37 21
57 0 196 36 217 55 12 10 32 36 45 56 13 21 58 66 100 100 41 34 88 80 105
102 16 22 62 65 102 96 39 31 93 85 120 120 26 36 69 92 95 125 58 72 98 141
148 255 20 47 45 96 55 110 41 60 79 142 114 250 20 63 51 158 67 210 17 52
39 111 49 131 62 124 103 600 80 946 -11 165 -41 406 -57 446 -8 21 -10 21 67
-2 135 -41 346 -72 529 -77 137 -4 218 6 328 38 40 11 75 18 78 15 10 -10 72
-268 124 -520 28 -136 41 -174 120 -357 22 -52 49 -122 60 -155 52 -163 122
-319 181 -406 22 -33 46 -77 53 -97 23 -65 62 -134 115 -205 28 -37 81 -115
118 -175 36 -59 99 -147 138 -197 39 -49 91 -117 115 -150 24 -33 68 -87 98
-120 29 -33 78 -100 108 -150 30 -49 73 -115 94 -145 62 -87 110 -210 131
-334 10 -60 21 -111 24 -114 13 -14 59 64 139 236 47 101 97 222 110 270 32
113 49 297 40 442 l-6 115 98 101 c103 104 142 153 232 282 111 161 167 291
207 477 7 33 16 67 19 76 4 8 8 82 9 165 1 93 6 148 12 147 14 -2 22 -40 35
-173 18 -189 25 -380 12 -380 -13 0 -20 -50 -27 -198 -3 -62 -14 -150 -25
-195 -10 -45 -23 -134 -29 -197 -6 -63 -14 -129 -20 -146 -5 -18 -5 -37 0 -47
5 -9 5 -25 0 -39 -4 -13 -13 -68 -20 -123 -7 -55 -20 -145 -31 -200 -31 -163
-32 -189 -9 -203 22 -14 55 5 182 105 213 169 450 474 470 606 6 37 117 250
126 242 2 -3 -17 -49 -42 -104 -45 -94 -56 -131 -39 -131 14 0 34 17 48 41 30
52 122 246 134 284 7 22 25 68 41 101 47 100 124 458 121 559 -1 28 2 66 6 85
l8 35 11 -35 c6 -19 26 -91 43 -160 18 -69 38 -141 46 -160 l13 -35 2 65 2 65
7 -50 c5 -27 9 -99 11 -160 1 -60 4 -99 6 -85 2 14 6 36 10 50 6 25 6 25 13
-5 12 -48 11 -141 -1 -172 -7 -15 -18 -50 -25 -78 -11 -46 -12 -32 -13 154 -1
112 -3 202 -5 200 -2 -2 -5 -69 -7 -149 -2 -98 -9 -164 -20 -205 -10 -33 -22
-81 -28 -108 -6 -26 -19 -62 -29 -81 -9 -18 -28 -54 -41 -79 -14 -26 -22 -50
-18 -53 11 -11 37 17 63 68 13 26 29 48 35 48 16 0 1 -57 -29 -106 -23 -38
-30 -43 -54 -39 -20 4 -30 0 -37 -14 -6 -10 -8 -21 -4 -24 3 -4 -2 -9 -11 -13
-23 -9 -20 -34 5 -34 11 0 17 -4 14 -10 -3 -5 -15 -10 -26 -10 -12 0 -17 -5
-14 -10 4 -6 1 -18 -7 -27 -11 -14 -10 -15 10 -9 17 6 21 4 16 -7 -4 -10 6
-16 35 -21 57 -9 62 -26 8 -26 -39 0 -50 -5 -95 -49 -29 -28 -52 -57 -52 -66
0 -10 -11 -26 -25 -37 -14 -11 -25 -28 -25 -39 0 -10 -4 -19 -10 -19 -5 0 -10
-11 -10 -25 0 -16 -6 -25 -15 -25 -8 0 -15 -5 -15 -11 0 -11 -25 -39 -35 -39
-13 0 -35 -29 -35 -45 0 -20 -156 -175 -176 -175 -8 0 -14 -4 -14 -10 0 -5 -7
-10 -15 -10 -8 0 -15 -5 -15 -11 0 -11 -25 -39 -35 -39 -10 0 -35 -28 -35 -39
0 -6 -7 -11 -15 -11 -8 0 -15 -4 -15 -10 0 -5 -7 -10 -15 -10 -9 0 -26 -11
-39 -25 -13 -14 -30 -25 -39 -25 -9 0 -19 -4 -22 -10 -3 -5 -14 -10 -25 -10
-10 0 -20 -7 -24 -15 -3 -8 -15 -15 -26 -15 -11 0 -20 -4 -20 -10 0 -6 -55
-10 -145 -10 -90 0 -145 4 -145 10 0 6 -11 10 -24 10 -13 0 -26 7 -30 15 -3 8
-15 15 -26 15 -11 0 -20 5 -20 10 0 6 -11 10 -25 10 -19 0 -25 -5 -25 -23 0
-12 -11 -31 -25 -41 -14 -10 -25 -27 -25 -37 0 -11 -4 -19 -10 -19 -5 0 -10
-11 -10 -24 0 -13 -7 -26 -15 -30 -8 -3 -15 -14 -15 -23 0 -10 -9 -25 -20 -33
-11 -8 -20 -25 -20 -37 0 -14 -6 -23 -15 -23 -8 0 -15 -5 -15 -11 0 -11 -25
-39 -35 -39 -10 0 -35 -28 -35 -39 0 -6 -10 -11 -23 -11 -12 0 -31 -11 -41
-25 -15 -20 -28 -25 -62 -25 -24 0 -44 -4 -44 -10 0 -6 -30 -10 -70 -10 -40 0
-70 4 -70 10 0 6 -16 10 -35 10 -22 0 -38 6 -41 15 -4 8 -15 15 -25 15 -10 0
-19 5 -19 10 0 6 -7 10 -15 10 -8 0 -15 5 -15 11 0 11 -25 39 -35 39 -12 0
-35 29 -35 45 0 9 -11 26 -25 39 -16 15 -25 34 -25 55 0 17 -4 31 -10 31 -5 0
-10 9 -10 20 0 11 -7 23 -15 26 -11 4 -15 21 -15 55 0 27 -4 49 -10 49 -5 0
-10 7 -10 15 0 9 -11 26 -25 39 -14 13 -25 31 -25 40 0 9 -7 19 -15 22 -8 4
-15 14 -15 23 0 19 -43 71 -59 71 -6 0 -11 10 -11 21 0 12 -16 36 -35 55 -19
18 -35 40 -35 49 0 19 -23 45 -39 45 -6 0 -11 7 -11 15 0 8 -4 15 -10 15 -5 0
-10 7 -10 15 0 8 -22 37 -50 64 -27 27 -50 55 -50 63 -1 15 -24 48 -34 48 -11
0 -36 27 -36 39 0 6 -7 11 -15 11 -9 0 -15 9 -15 23 0 13 -15 34 -35 52 -19
16 -35 38 -35 47 0 10 -4 18 -10 18 -5 0 -10 11 -10 25 0 16 -6 25 -15 25 -8
0 -15 7 -15 15 0 8 -4 15 -10 15 -5 0 -10 9 -10 19 0 10 -7 21 -15 25 -8 3
-15 15 -15 26 0 11 -4 20 -10 20 -5 0 -10 5 -10 11 0 14 -25 39 -39 39 -6 0
-11 11 -11 25 0 14 -4 25 -10 25 -5 0 -10 11 -10 25 0 14 -5 25 -11 25 -17 0
-39 27 -39 49 0 12 -4 21 -10 21 -5 0 -10 8 -10 19 0 10 -11 27 -25 37 -14 10
-25 29 -25 41 0 14 -6 23 -15 23 -9 0 -15 9 -15 25 0 14 -4 25 -10 25 -5 0
-10 11 -10 25 0 16 -6 25 -15 25 -9 0 -15 9 -15 25 0 14 -4 25 -10 25 -5 0
-10 16 -10 35 0 19 -4 35 -10 35 -5 0 -10 9 -10 20 0 11 -7 23 -15 26 -9 4
-15 19 -15 40 0 19 -4 34 -10 34 -5 0 -10 11 -10 25 0 16 -6 25 -15 25 -10 0
-15 11 -15 35 0 19 -4 35 -10 35 -5 0 -10 11 -10 25 0 16 -6 25 -15 25 -10 0
-15 11 -15 35 0 19 -4 35 -10 35 -5 0 -10 11 -10 25 0 14 -4 25 -10 25 -5 0
-10 16 -10 35 0 24 -5 35 -15 35 -9 0 -15 9 -15 25 0 14 -4 25 -10 25 -5 0
-10 15 -10 34 0 21 -6 36 -15 40 -9 3 -15 19 -15 41 0 19 -4 35 -10 35 -5 0
-10 20 -10 45 0 25 -4 45 -10 45 -5 0 -10 20 -10 45 0 31 -5 47 -15 51 -11 4
-15 21 -15 55 0 27 -4 49 -10 49 -5 0 -10 7 -10 15 0 8 -9 24 -20 35 -18 18
-33 20 -185 20 l-165 0 0 -60 c0 -47 3 -60 15 -60 13 0 15 -22 15 -135 0 -113
-2 -135 -15 -135 -12 0 -15 -17 -15 -95 0 -57 -4 -95 -10 -95 -6 0 -10 -52
-10 -135 0 -83 -4 -135 -10 -135 -5 0 -10 -25 -10 -55 0 -40 -4 -57 -15 -61
-9 -4 -15 -19 -15 -40 0 -19 -4 -34 -10 -34 -5 0 -10 -15 -10 -34 0 -21 -6
-36 -15 -40 -9 -3 -15 -19 -15 -41 0 -19 -4 -35 -10 -35 -5 0 -10 -20 -10 -44
0 -30 -5 -46 -15 -50 -9 -3 -15 -19 -15 -41 0 -19 -4 -35 -10 -35 -5 0 -10 -9
-10 -20 0 -11 -4 -20 -10 -20 -5 0 -10 -16 -10 -35 0 -22 -6 -38 -15 -41 -8
-4 -15 -15 -15 -25 0 -10 -4 -19 -10 -19 -5 0 -10 -11 -10 -24 0 -13 -7 -26
-15 -30 -8 -3 -15 -15 -15 -26 0 -11 -4 -20 -10 -20 -5 0 -10 -15 -10 -34 0
-21 -6 -36 -15 -40 -8 -3 -15 -15 -15 -26 0 -11 -4 -20 -10 -20 -5 0 -10 -11
-10 -25 0 -14 -4 -25 -10 -25 -5 0 -10 -11 -10 -25 0 -16 -6 -25 -15 -25 -9 0
-15 -9 -15 -25 0 -14 -4 -25 -10 -25 -5 0 -10 -8 -10 -19 0 -10 -11 -27 -25
-37 -14 -10 -25 -29 -25 -41 0 -13 -4 -23 -10 -23 -5 0 -10 -8 -10 -19 0 -10
-11 -27 -25 -37 -14 -10 -25 -29 -25 -41 0 -13 -5 -23 -11 -23 -16 0 -39 -26
-39 -44 0 -20 -566 -586 -586 -586 -18 0 -44 -23 -44 -39 0 -6 -11 -11 -25
-11 -14 0 -25 -4 -25 -10 0 -5 -11 -10 -25 -10 -16 0 -25 -6 -25 -15 0 -10
-11 -15 -35 -15 -19 0 -35 -4 -35 -10 0 -5 -16 -10 -35 -10 -19 0 -35 -4 -35
-10 0 -6 -47 -10 -120 -10 -73 0 -120 4 -120 10 0 6 -15 10 -34 10 -19 0 -38
4 -41 10 -3 5 -13 10 -20 10 -19 0 -155 137 -155 155 0 8 -4 15 -10 15 -5 0
-10 18 -10 40 0 22 -4 40 -10 40 -6 0 -10 47 -10 120 0 73 4 120 10 120 6 0
10 57 10 150 0 186 -2 190 -102 190 -39 0 -68 4 -68 10 0 6 -15 10 -34 10 -21
0 -36 6 -40 15 -3 8 -15 15 -26 15 -11 0 -20 5 -20 10 0 6 -11 10 -25 10 -14
0 -25 5 -25 10 0 6 -9 10 -20 10 -11 0 -23 7 -26 15 -4 9 -19 15 -40 15 -19 0
-34 5 -34 10 0 6 -9 10 -20 10 -11 0 -23 7 -26 15 -4 8 -16 15 -28 15 -12 0
-28 9 -36 20 -8 11 -21 20 -29 20 -8 0 -42 29 -76 65 -35 36 -70 65 -79 65 -9
0 -16 5 -16 10 0 6 -5 10 -11 10 -14 0 -39 25 -39 39 0 6 -5 11 -11 11 -11 0
-39 25 -39 35 0 10 -28 35 -39 35 -6 0 -11 5 -11 11 0 11 -25 39 -35 39 -10 0
-35 28 -35 39 0 6 -5 11 -11 11 -16 0 -39 26 -39 45 0 9 -16 31 -35 49 -19 19
-35 40 -35 48 0 8 -11 24 -25 34 -14 10 -25 29 -25 41 0 13 -4 23 -10 23 -5 0
-10 9 -10 20 0 11 -7 23 -15 26 -8 4 -15 17 -15 30 0 13 -4 24 -10 24 -5 0
-10 9 -10 19 0 10 -7 21 -15 25 -8 3 -15 15 -15 26 0 11 -4 20 -10 20 -5 0
-10 11 -10 24 0 13 -7 26 -15 30 -8 3 -15 14 -15 23 0 10 -9 25 -20 33 -11 8
-20 25 -20 37 0 14 -6 23 -15 23 -9 0 -15 9 -15 23 0 12 -11 31 -25 41 -14 10
-25 27 -25 37 0 11 -4 19 -10 19 -5 0 -10 11 -10 25 0 14 -4 25 -10 25 -5 0
-10 9 -10 20 0 11 -7 23 -15 26 -8 4 -15 17 -15 30 0 13 -4 24 -10 24 -5 0
-10 16 -10 35 0 24 -5 35 -15 35 -9 0 -15 9 -15 25 0 14 -4 25 -10 25 -5 0
-10 15 -10 34 0 21 -6 36 -15 40 -9 3 -15 18 -15 35 0 16 -4 33 -10 36 -5 3
-10 22 -10 41 0 19 -4 34 -10 34 -5 0 -10 16 -10 35 0 24 -5 35 -15 35 -11 0
-15 12 -15 50 0 28 -4 50 -10 50 -6 0 -10 27 -10 60 0 47 -3 60 -15 60 -11 0
-15 12 -15 45 0 25 -4 45 -10 45 -6 0 -10 103 -10 290 0 187 4 290 10 290 6 0
10 38 10 95 0 76 3 97 15 101 12 5 15 25 15 90 0 68 -3 84 -15 84 -8 0 -15 5
-15 10 0 6 -7 10 -15 10 -20 0 -125 105 -125 124 0 9 -7 19 -15 22 -8 4 -15
17 -15 30 0 13 -4 24 -10 24 -5 0 -10 20 -10 45 0 25 -4 45 -10 45 -5 0 -10
11 -10 25 0 14 5 25 10 25 6 0 10 23 10 50 0 28 5 50 10 50 6 0 10 14 10 30 0
18 6 33 15 36 8 4 15 16 15 28 0 12 11 30 25 40 14 10 25 25 25 33 0 8 16 29
35 47 19 19 35 43 35 55 0 11 5 21 10 21 6 0 10 9 10 20 0 22 -41 70 -60 70
-5 0 -10 7 -10 15 0 8 -4 15 -10 15 -5 0 -10 9 -10 20 0 11 -7 23 -15 26 -8 4
-15 15 -15 25 0 10 -4 19 -10 19 -6 0 -10 27 -10 60 0 45 -4 62 -15 66 -8 4
-15 14 -15 24 0 10 7 20 15 24 11 4 15 21 15 61 0 30 5 55 10 55 6 0 10 11 10
24 0 13 7 26 15 30 8 3 15 13 15 22 0 9 20 36 45 60 25 23 45 47 45 53 0 6 4
11 10 11 5 0 43 34 85 75 41 42 75 80 75 85 0 6 7 10 15 10 8 0 15 5 15 10 0
6 7 10 16 10 18 0 244 224 244 242 0 6 22 33 50 59 28 26 50 55 50 63 0 17 74
96 90 96 6 0 10 26 10 59 0 43 -4 60 -15 65 -10 4 -15 20 -15 51 0 25 -4 45
-10 45 -6 0 -10 30 -10 70 0 40 4 70 10 70 6 0 10 16 10 35 0 22 6 38 15 41 8
4 15 15 15 25 0 10 5 19 10 19 6 0 10 7 10 15 0 8 5 15 10 15 6 0 10 7 10 16
0 20 135 154 155 154 8 0 15 5 15 10 0 6 7 10 15 10 8 0 15 5 15 11 0 14 25
39 39 39 6 0 11 7 11 15 0 8 9 15 21 15 12 0 44 25 78 60 32 33 64 60 70 60 7
0 50 38 97 85 46 47 91 85 99 85 8 0 15 5 15 10 0 6 7 10 15 10 9 0 15 9 15
25 0 20 5 25 25 25 19 0 25 5 25 23 0 12 9 29 20 37 17 12 20 26 20 97 0 49
-4 83 -10 83 -5 0 -10 11 -10 25 0 14 5 25 10 25 6 0 10 30 10 70 0 56 3 70
15 70 8 0 15 9 15 20 0 24 152 180 175 180 8 0 15 5 15 10 0 6 7 10 15 10 8 0
15 6 15 14 0 8 6 17 13 19 9 4 9 8 1 14 -7 4 -13 17 -15 28 -3 11 -13 21 -24
24 -11 2 -34 19 -52 37 -17 19 -41 34 -52 34 -12 0 -21 5 -21 11 0 16 -27 39
-46 39 -9 0 -27 11 -40 25 -13 14 -30 25 -39 25 -8 0 -15 5 -15 10 0 6 -7 10
-15 10 -8 0 -15 7 -15 15 0 9 -9 15 -25 15 -14 0 -25 5 -25 10 0 6 -7 10 -16
10 -9 0 -27 11 -40 25 -13 14 -32 25 -44 25 -11 0 -20 5 -20 10 0 6 -9 10 -20
10 -11 0 -23 7 -26 15 -4 8 -15 15 -25 15 -10 0 -19 5 -19 10 0 6 -11 10 -24
10 -13 0 -26 7 -30 15 -3 9 -18 15 -35 15 -16 0 -33 5 -36 10 -3 6 -13 10 -22
10 -9 0 -26 11 -39 25 -13 14 -30 25 -39 25 -16 0 -45 23 -45 35 0 10 -28 35
-39 35 -6 0 -11 11 -11 25 0 14 -4 25 -10 25 -5 0 -10 8 -10 19 0 10 -11 27
-25 37 -14 10 -25 29 -25 41 0 17 -6 23 -23 23 -12 0 -31 11 -41 25 -10 14
-25 25 -33 25 -20 0 -93 75 -93 95 0 9 -7 18 -15 21 -8 4 -15 17 -15 30 0 13
-4 24 -10 24 -5 0 -10 9 -10 20 0 11 -7 23 -15 26 -12 5 -15 28 -15 120 0 93
3 116 15 120 9 4 15 19 15 38 0 22 8 37 25 50 14 10 25 27 25 37 0 11 5 19 10
19 6 0 10 7 10 15 0 8 5 15 10 15 6 0 10 16 10 35 0 24 5 35 15 35 9 0 15 9
15 25 0 14 5 25 10 25 6 0 10 16 10 35 0 24 5 35 15 35 9 0 15 9 15 23 0 12 9
29 20 37 11 8 20 25 20 37 0 14 6 23 15 23 9 0 15 9 15 25 0 14 5 25 10 25 6
0 10 16 10 35 0 24 5 35 15 35 11 0 15 12 15 50 0 28 5 50 10 50 6 0 10 11 10
25 0 14 5 25 11 25 16 0 39 26 39 45 0 8 27 42 60 74 54 53 60 63 60 99 0 26
5 42 15 46 11 4 15 22 15 76 0 40 4 70 10 70 6 0 10 11 10 25 0 14 5 25 10 25
6 0 10 7 10 16 0 20 86 104 106 104 8 0 14 5 14 10 0 6 7 10 15 10 8 0 15 7
15 15 0 10 10 15 30 15 16 0 39 8 50 17 19 17 20 29 20 265 0 159 4 248 10
248 6 0 10 43 10 110 0 67 4 110 10 110 6 0 10 20 10 45 0 33 4 45 15 45 11 0
15 11 15 40 0 22 5 40 10 40 6 0 10 20 10 44 0 30 5 46 15 50 8 3 15 15 15 26
0 11 5 20 10 20 6 0 10 16 10 35 0 19 5 35 10 35 6 0 10 20 10 45 0 31 5 47
15 51 11 4 15 21 15 55 0 27 5 49 10 49 6 0 10 16 10 35 0 24 5 35 15 35 10 0
15 11 15 35 0 19 5 35 10 35 6 0 10 15 10 34 0 21 6 36 15 40 8 3 15 15 15 26
0 11 5 20 10 20 6 0 10 10 10 23 0 12 11 31 25 41 14 10 25 27 25 37 0 11 5
19 10 19 6 0 10 7 10 15 0 8 5 15 11 15 12 0 39 25 39 36 0 10 33 33 48 34 19
0 122 105 122 124 0 8 11 23 25 34 14 11 25 29 25 41 0 12 5 21 10 21 6 0 10
8 10 19 0 10 11 27 25 37 14 10 25 29 25 41 0 13 5 23 11 23 11 0 39 25 39 35
0 10 28 35 39 35 6 0 11 5 11 11 0 11 25 39 35 39 10 0 35 28 35 39 0 6 11 11
25 11 14 0 25 5 25 10 0 6 9 10 20 10 11 0 23 7 26 15 5 12 28 15 120 15 93 0
116 -3 120 -15 4 -8 17 -15 30 -15 13 0 24 -4 24 -10 0 -5 7 -10 16 -10 18 0
104 -83 104 -101 0 -6 11 -22 25 -35 16 -15 25 -34 25 -54 0 -16 5 -30 10 -30
6 0 10 -87 10 -240 0 -153 4 -240 10 -240 6 0 10 -20 10 -45 0 -31 5 -47 15
-51 9 -4 15 -19 15 -40 0 -19 5 -34 10 -34 6 0 10 -11 10 -25 0 -16 6 -25 15
-25 9 0 15 -9 15 -25 0 -14 5 -25 10 -25 6 0 10 -11 10 -25 0 -14 5 -25 11
-25 14 0 39 -25 39 -39 0 -6 16 -11 35 -11 24 0 35 5 35 15 0 11 11 15 40 15
22 0 40 5 40 10 0 6 16 10 35 10 24 0 35 5 35 15 0 10 11 15 35 15 19 0 35 5
35 10 0 6 23 10 50 10 28 0 50 5 50 10 0 6 41 10 104 10 83 0 105 3 110 15 4
11 22 15 75 15 52 0 70 -4 75 -15 4 -13 40 -15 231 -15 143 0 225 -4 225 -10
0 -6 35 -10 85 -10 50 0 85 -4 85 -10 0 -6 47 -10 120 -10 73 0 120 4 120 10
0 6 11 10 25 10 14 0 25 5 25 10 0 6 7 10 17 10 9 0 33 18 54 40 21 22 45 40
54 40 8 0 15 5 15 10 0 6 7 10 15 10 8 0 15 5 15 11 0 14 25 39 39 39 6 0 11
5 11 10 0 6 7 10 15 10 24 0 195 176 195 200 0 11 7 20 15 20 8 0 15 7 15 15
0 8 5 15 10 15 6 0 10 9 10 19 0 10 7 21 15 25 8 3 15 15 15 26 0 11 5 20 10
20 6 0 10 9 10 20 0 12 11 31 25 44 14 13 25 31 25 40 0 9 5 16 10 16 6 0 10
16 10 35 0 22 6 38 15 41 10 4 15 20 15 50 0 24 5 44 10 44 6 0 10 26 10 59 0
43 4 60 15 65 10 4 15 19 15 48 0 32 5 47 20 58 11 8 20 25 20 37 0 14 6 23
15 23 8 0 15 5 15 11 0 6 6 17 14 25 8 8 19 14 25 14 6 0 11 5 11 11 0 17 27
39 49 39 12 0 21 5 21 10 0 6 20 10 45 10 31 0 47 5 51 15 5 11 23 15 74 15
51 0 69 -4 74 -15z m-155 -1515 c4 0 12 5 19 10 9 7 9 7 2 -2 -15 -18 -12 -38
5 -38 14 0 14 -4 -1 -32 -9 -18 -23 -41 -32 -51 -11 -13 -13 -20 -4 -29 8 -8
7 -17 -5 -34 -14 -22 -14 -24 0 -24 9 0 20 6 24 13 14 21 69 55 80 49 18 -12
33 -50 33 -84 0 -26 7 -39 30 -56 16 -12 35 -32 41 -45 11 -20 10 -20 -24 6
-19 15 -40 27 -46 27 -6 0 -28 9 -48 20 -21 11 -43 20 -49 20 -6 0 -22 8 -35
19 -13 10 -35 21 -49 24 -68 15 -169 45 -186 55 -18 11 -18 11 1 12 26 0 91
54 110 91 9 16 39 42 68 59 49 28 52 29 55 10 2 -11 7 -20 11 -20z m52 -103
c-10 -9 -11 -8 -5 6 3 10 9 15 12 12 3 -3 0 -11 -7 -18z m-3429 -65 l-5 -27
21 25 c27 33 36 21 22 -27 -7 -24 -8 -47 -2 -62 l9 -25 19 32 c10 18 22 32 25
32 4 0 15 7 23 16 14 14 16 14 16 0 0 -8 -5 -27 -12 -41 -14 -31 -6 -40 22
-25 17 9 19 14 9 26 -6 8 -9 17 -5 21 3 3 6 1 6 -6 0 -10 10 -11 35 -7 19 4
35 3 35 -2 0 -4 17 -6 38 -4 33 4 36 3 22 -12 -29 -30 -239 -127 -265 -122
-14 3 -25 0 -25 -5 0 -6 -4 -8 -8 -5 -5 3 -18 -3 -29 -13 -11 -10 -30 -22 -43
-26 -22 -7 -23 -6 -15 31 4 22 9 60 10 86 2 49 20 82 40 74 18 -7 46 60 38 92
-5 23 -4 25 9 14 10 -8 13 -22 10 -40z m3966 -426 c64 -33 102 -102 102 -181
0 -155 -141 -256 -282 -203 -16 6 -28 12 -28 14 0 3 18 40 40 84 43 85 120
271 120 289 0 15 16 14 48 -3z m-4523 -473 c3 -26 9 -58 12 -70 4 -19 2 -21
-19 -15 -171 51 -205 295 -53 387 l40 25 6 -140 c4 -77 10 -161 14 -187z
m3141 223 c8 -22 17 -30 30 -28 15 3 16 1 7 -9 -7 -6 -9 -24 -6 -39 3 -15 0
-31 -6 -34 -6 -4 -11 -15 -11 -25 0 -10 -9 -26 -20 -36 -15 -14 -17 -20 -8
-26 7 -4 17 -4 23 0 5 5 20 10 31 13 21 5 22 1 28 -71 13 -147 28 -220 50
-244 20 -21 120 -93 156 -111 8 -4 -15 20 -52 53 -81 75 -94 106 -108 263 -6
65 -15 129 -22 143 -16 34 -2 44 25 17 17 -18 19 -24 9 -31 -11 -6 -11 -22 -2
-77 26 -167 41 -214 81 -256 27 -29 43 -38 57 -34 27 9 136 -64 165 -111 36
-58 39 -70 48 -178 7 -87 5 -108 -12 -162 -25 -75 -76 -136 -157 -186 -58 -36
-62 -37 -189 -43 -162 -9 -213 5 -281 75 -134 137 -154 387 -52 641 53 131 83
265 87 380 7 194 7 200 14 200 4 0 12 -7 20 -16 12 -14 14 -13 21 7 9 23 9 23
36 -11 15 -18 32 -47 38 -64z m-2067 -34 c-7 -46 -56 -164 -71 -170 -16 -7 -5
-112 11 -112 4 0 14 23 21 50 15 56 33 61 38 11 2 -22 0 -31 -7 -26 -7 4 -11
-10 -11 -42 0 -44 -16 -120 -35 -167 -7 -16 -6 -17 13 -7 12 7 22 18 22 25 0
7 23 37 50 65 28 28 50 56 50 61 0 5 7 7 14 4 12 -5 16 7 18 53 l3 58 18 -74
c16 -71 16 -75 0 -100 -10 -14 -18 -33 -19 -42 -1 -9 -4 -29 -7 -45 l-6 -29
14 30 c8 17 14 36 15 44 0 8 3 12 6 9 3 -4 -4 -36 -15 -73 -36 -116 -27 -207
26 -263 13 -13 11 -109 -3 -177 -10 -49 -60 -138 -96 -172 -54 -52 -137 -85
-221 -86 -66 -2 -77 1 -122 30 -52 33 -118 111 -128 151 -7 28 21 275 35 311
9 24 10 24 20 8 9 -16 12 -14 29 20 19 38 79 103 152 164 48 40 62 66 47 84
-9 11 -7 24 8 59 11 24 23 80 27 123 4 43 17 107 28 143 11 36 21 74 21 85 1
16 36 44 57 45 3 0 3 -22 -2 -48z m2174 -17 c-3 -43 -7 -50 -22 -40 -12 7 -15
68 -4 79 15 15 28 -4 26 -39z m1458 -43 c-6 -2 -11 -24 -11 -48 0 -39 5 -50
40 -84 29 -29 49 -40 70 -40 17 0 30 -4 30 -10 0 -5 11 -10 25 -10 16 0 25 -6
25 -15 0 -9 9 -15 25 -15 14 0 25 -4 25 -10 0 -5 11 -10 25 -10 14 0 25 -4 25
-10 0 -5 7 -10 15 -10 9 0 26 -11 39 -25 13 -14 29 -25 36 -25 18 0 120 -107
120 -125 0 -9 7 -18 15 -21 8 -4 15 -17 15 -30 0 -13 5 -24 10 -24 6 0 10 -16
10 -35 0 -24 5 -35 15 -35 10 0 15 -11 15 -35 0 -19 5 -35 10 -35 6 0 10 -5
10 -11 0 -14 30 -38 48 -39 19 0 122 -105 122 -124 0 -8 5 -18 10 -21 6 -3 10
-20 10 -36 0 -17 6 -32 15 -35 8 -4 15 -17 15 -30 0 -13 5 -24 10 -24 6 0 10
-16 10 -35 l0 -35 50 0 c28 0 50 -4 50 -10 0 -5 16 -10 35 -10 24 0 35 -5 35
-15 0 -12 13 -15 60 -15 33 0 60 -4 60 -10 0 -5 22 -10 49 -10 34 0 51 -4 55
-15 3 -8 15 -15 26 -15 11 0 20 -4 20 -10 0 -5 9 -10 21 -10 22 0 49 -22 49
-39 0 -6 9 -11 21 -11 11 0 27 -6 35 -14 8 -8 14 -24 14 -35 0 -12 6 -21 15
-21 8 0 15 -7 15 -15 0 -8 5 -15 10 -15 6 0 10 -16 10 -35 0 -24 5 -35 15 -35
12 0 15 -17 15 -95 0 -78 -3 -95 -15 -95 -10 0 -15 -10 -15 -31 0 -21 -9 -40
-25 -55 -14 -13 -25 -31 -25 -40 0 -19 -48 -64 -68 -64 -7 0 -23 -11 -36 -25
-13 -14 -31 -25 -40 -25 -9 0 -19 -7 -22 -15 -4 -8 -15 -15 -25 -15 -10 0 -19
-4 -19 -10 0 -5 -18 -10 -40 -10 -22 0 -40 -4 -40 -10 0 -5 -20 -10 -45 -10
-33 0 -45 -4 -45 -15 0 -11 -12 -15 -50 -15 -27 0 -50 -4 -50 -10 0 -5 -11
-10 -25 -10 -16 0 -25 -6 -25 -15 0 -8 -4 -15 -10 -15 -5 0 -10 -7 -10 -15 0
-20 -135 -155 -155 -155 -8 0 -15 -4 -15 -10 0 -5 -11 -10 -24 -10 -13 0 -26
-7 -30 -15 -3 -8 -15 -15 -26 -15 -11 0 -20 -4 -20 -10 0 -5 -16 -10 -35 -10
-19 0 -35 -4 -35 -10 0 -5 -15 -10 -34 -10 -21 0 -36 -6 -40 -15 -3 -9 -19
-15 -41 -15 -19 0 -35 -4 -35 -10 0 -5 -16 -10 -35 -10 -24 0 -35 -5 -35 -15
0 -10 -11 -15 -35 -15 -19 0 -35 -4 -35 -10 0 -5 -11 -10 -25 -10 -14 0 -25
-4 -25 -10 0 -5 -16 -10 -35 -10 -24 0 -35 -5 -35 -15 0 -9 -9 -15 -25 -15
-14 0 -25 -4 -25 -10 0 -5 -11 -10 -25 -10 -16 0 -25 -6 -25 -15 0 -9 -9 -15
-25 -15 -14 0 -25 -4 -25 -10 0 -5 -11 -10 -25 -10 -16 0 -25 -6 -25 -15 0 -9
-9 -15 -22 -15 -14 0 -35 -15 -53 -35 -16 -19 -36 -35 -44 -35 -7 0 -24 -11
-37 -25 -13 -14 -30 -25 -39 -25 -10 0 -15 -10 -15 -30 0 -34 46 -90 74 -90 9
0 16 -4 16 -10 0 -5 9 -10 21 -10 12 0 30 -11 41 -25 11 -14 28 -25 39 -25 10
0 19 -4 19 -10 0 -5 11 -10 25 -10 16 0 25 -6 25 -15 0 -9 9 -15 23 -15 12 0
31 -11 41 -25 10 -14 27 -25 37 -25 11 0 19 -4 19 -10 0 -5 11 -10 24 -10 13
0 26 -7 30 -15 3 -8 15 -15 26 -15 11 0 20 -4 20 -10 0 -5 11 -10 25 -10 14 0
25 -4 25 -10 0 -5 9 -10 20 -10 11 0 23 -7 26 -15 4 -8 15 -15 25 -15 10 0 19
-4 19 -10 0 -5 9 -10 20 -10 11 0 35 -15 53 -34 18 -19 42 -35 52 -38 11 -2
21 -12 24 -23 2 -11 14 -30 27 -42 13 -12 24 -29 24 -38 0 -19 23 -45 39 -45
7 0 11 -24 11 -60 0 -33 4 -60 10 -60 6 0 10 -11 10 -25 0 -14 -4 -25 -10 -25
-6 0 -10 -27 -10 -60 0 -47 -3 -60 -15 -60 -9 0 -15 -9 -15 -23 0 -12 -11 -31
-25 -41 -20 -15 -25 -28 -25 -62 0 -25 5 -44 11 -44 14 0 39 -25 39 -39 0 -6
5 -11 11 -11 12 0 39 -25 39 -36 0 -10 33 -33 49 -34 7 0 24 -11 37 -25 13
-14 30 -25 39 -25 19 0 45 -23 45 -39 0 -6 9 -11 21 -11 11 0 35 -16 53 -35
19 -19 40 -35 47 -35 16 -1 49 -24 49 -34 0 -11 27 -36 39 -36 6 0 11 -10 11
-21 0 -12 11 -32 25 -45 14 -13 25 -30 25 -39 0 -8 5 -15 10 -15 6 0 10 -11
10 -25 0 -14 5 -25 10 -25 6 0 10 -57 10 -151 l0 -151 46 -44 c25 -24 52 -44
60 -44 15 0 44 -23 44 -35 0 -12 29 -35 44 -35 9 0 32 -16 50 -35 19 -19 40
-35 47 -35 7 0 29 -18 50 -40 21 -22 47 -40 59 -40 12 0 20 -7 20 -17 0 -21
42 -73 59 -73 6 0 11 -7 11 -15 0 -8 5 -15 10 -15 6 0 10 -9 10 -20 0 -11 7
-23 15 -26 9 -4 15 -19 15 -40 0 -19 5 -34 10 -34 6 0 10 -35 10 -85 0 -50 -4
-85 -10 -85 -5 0 -10 -20 -10 -44 0 -30 -5 -46 -15 -50 -8 -3 -15 -13 -15 -22
0 -9 -16 -31 -35 -50 -19 -18 -35 -42 -35 -53 0 -12 -4 -21 -10 -21 -5 0 -10
-9 -10 -20 0 -22 71 -100 90 -100 7 0 10 -7 6 -15 -6 -16 46 -50 58 -38 3 4 6
1 6 -5 0 -7 7 -12 15 -12 8 0 15 -7 15 -15 0 -8 9 -15 20 -15 12 0 40 -20 64
-45 25 -25 51 -45 59 -45 8 0 23 -11 33 -25 10 -14 29 -25 41 -25 14 0 23 -6
23 -15 0 -8 5 -15 11 -15 14 0 39 -25 39 -39 0 -6 11 -11 25 -11 14 0 25 -4
25 -10 0 -5 9 -10 21 -10 22 0 49 -22 49 -39 0 -6 11 -11 25 -11 14 0 25 -4
25 -10 0 -5 11 -10 25 -10 16 0 25 -6 25 -15 0 -9 9 -15 23 -15 12 0 29 -9 37
-20 8 -11 21 -20 28 -20 19 0 122 -106 122 -125 0 -9 7 -18 15 -21 9 -4 15
-19 15 -40 0 -19 5 -34 10 -34 6 0 10 -43 10 -110 0 -67 -4 -110 -10 -110 -5
0 -10 -14 -10 -30 0 -20 -9 -39 -25 -54 -14 -13 -25 -29 -25 -36 0 -7 -16 -27
-35 -46 -19 -18 -35 -37 -35 -43 0 -6 -10 -11 -23 -11 -12 0 -31 -11 -41 -25
-10 -14 -27 -25 -37 -25 -11 0 -19 -4 -19 -10 0 -5 -18 -10 -40 -10 -22 0 -40
-4 -40 -10 0 -5 -14 -10 -30 -10 -18 0 -33 -6 -36 -15 -4 -10 -20 -15 -50 -15
-24 0 -44 -4 -44 -10 0 -5 -18 -10 -40 -10 -29 0 -40 -4 -40 -15 0 -9 -9 -15
-25 -15 -18 0 -25 -5 -25 -20 0 -11 7 -23 15 -26 8 -4 15 -13 15 -21 0 -8 32
-46 70 -84 39 -37 70 -75 70 -84 0 -9 11 -26 25 -39 16 -15 25 -34 25 -55 0
-21 5 -31 15 -31 12 0 15 -17 15 -95 0 -78 -3 -95 -15 -95 -9 0 -15 -9 -15
-25 0 -14 -4 -25 -10 -25 -5 0 -10 -11 -10 -25 0 -16 -6 -25 -15 -25 -13 0
-15 -29 -15 -205 0 -130 -4 -205 -10 -205 -6 0 -10 -132 -10 -375 0 -243 -4
-375 -10 -375 -6 0 -10 -27 -10 -60 0 -47 -3 -60 -15 -60 -10 0 -15 -11 -15
-35 0 -19 -4 -35 -10 -35 -5 0 -10 -16 -10 -35 0 -22 -6 -38 -15 -41 -9 -4
-15 -19 -15 -40 0 -19 -4 -34 -10 -34 -5 0 -10 -11 -10 -25 0 -16 -6 -25 -15
-25 -10 0 -15 -11 -15 -35 0 -19 -4 -35 -10 -35 -5 0 -10 -11 -10 -25 0 -14
-4 -25 -10 -25 -5 0 -10 -9 -10 -20 0 -11 -7 -23 -15 -26 -8 -4 -15 -15 -15
-25 0 -10 -4 -19 -10 -19 -5 0 -10 -18 -10 -40 0 -22 -5 -40 -11 -40 -14 0
-39 -25 -39 -39 0 -6 -7 -11 -15 -11 -8 0 -15 -8 -15 -17 -1 -25 -24 -53 -44
-53 -19 0 -46 -23 -46 -39 0 -6 -11 -11 -25 -11 -14 0 -25 -4 -25 -10 0 -5
-11 -10 -25 -10 -16 0 -25 -6 -25 -15 0 -11 -12 -15 -47 -15 -44 1 -47 2 -29
15 11 8 27 15 36 15 39 0 134 68 99 71 -8 1 -21 2 -29 3 -8 0 -18 -3 -22 -9
-5 -6 -8 -6 -8 2 0 6 -9 9 -20 6 -11 -3 -21 0 -21 6 -3 26 -4 30 -11 36 -4 4
-12 4 -18 0 -8 -5 -8 -10 0 -21 7 -7 10 -19 7 -26 -4 -8 -8 -5 -12 9 -4 13
-15 23 -24 24 -10 0 -11 2 -3 6 17 7 5 23 -18 23 -13 0 -17 5 -13 20 3 12 14
20 25 20 16 0 18 3 9 14 -13 16 2 69 50 174 16 34 29 67 29 73 0 6 5 7 11 3 7
-4 9 -24 6 -53 -10 -82 14 -6 29 92 15 98 65 253 88 271 14 11 30 93 41 211 5
52 16 604 19 950 1 119 -16 179 -69 250 -41 52 -28 85 19 50 37 -28 168 -14
204 21 17 18 15 24 -10 24 -33 0 -101 36 -151 80 -51 45 -87 104 -152 252 -26
57 -71 152 -101 212 -32 65 -54 121 -54 141 l0 32 133 6 c133 5 168 11 467 84
152 36 185 51 237 105 29 30 59 86 50 94 -2 2 -14 -7 -26 -20 -22 -23 -25 -24
-59 -11 -126 45 -255 118 -397 226 -82 63 -179 135 -215 161 -36 25 -96 74
-135 108 -38 34 -101 84 -140 110 -38 26 -92 71 -120 100 -27 28 -79 76 -115
107 -81 69 -313 293 -304 293 4 0 43 -7 87 -16 62 -13 118 -15 241 -12 143 4
166 7 205 28 48 24 85 58 114 103 l18 28 -56 24 c-30 14 -58 25 -60 25 -18 0
-291 205 -360 270 -27 26 -90 82 -140 125 -132 114 -369 349 -357 353 11 3
118 -8 257 -28 79 -11 215 -13 239 -4 30 11 16 21 -36 26 -37 4 -57 12 -69 27
-10 12 -33 27 -51 34 -38 14 -250 150 -338 217 -85 65 -195 159 -339 288 -69
62 -179 159 -244 215 l-118 102 203 7 c209 7 298 20 401 58 60 23 78 47 28 37
-30 -6 -154 42 -231 90 -19 12 -80 43 -135 70 -107 52 -294 157 -360 203 -22
15 -69 42 -104 61 -35 19 -88 55 -117 82 -28 26 -94 72 -145 103 -52 31 -106
63 -121 72 -28 17 -64 90 -50 104 4 4 40 21 80 37 40 17 85 39 100 49 15 11
70 43 122 72 102 57 263 167 346 236 96 81 411 210 544 223 72 8 163 40 115
41 -11 0 -35 -4 -53 -9 -18 -6 -32 -6 -32 -1 0 9 36 20 108 35 18 4 61 19 95
34 34 15 88 36 119 46 79 26 61 38 -65 47 -102 7 -129 13 -372 82 -198 57
-198 56 -5 53 375 -7 770 43 955 120 40 17 77 25 113 24 85 -1 59 22 -39 35
-172 23 -346 56 -404 79 -81 31 -126 45 -164 50 -63 8 -97 18 -155 46 -32 16
-90 39 -130 51 -39 12 -96 32 -126 44 l-55 23 44 1 c100 1 239 53 287 108 37
42 42 62 16 62 -40 0 -199 71 -332 147 -50 29 -157 129 -148 138 2 2 42 7 88
11 53 4 101 14 127 27 23 11 51 17 62 14 12 -3 21 -2 21 1 0 10 -186 98 -247
117 -28 9 -80 34 -114 56 -34 22 -80 47 -103 56 -69 28 -117 62 -212 152 -51
47 -105 96 -120 108 l-29 22 36 36 36 37 44 -23 c30 -15 68 -24 121 -27 70 -4
83 -2 135 24 65 31 119 84 130 129 l7 30 4 -30 c2 -16 -1 -31 -7 -33z m-3588
-58 c8 -8 -3 -34 -14 -34 -5 0 -9 9 -9 20 0 19 11 26 23 14z m24 -71 c-3 -10
-5 -2 -5 17 0 19 2 27 5 18 2 -10 2 -26 0 -35z m147 -100 c38 -40 44 -64 23
-82 -16 -13 -27 -5 -27 21 0 10 -6 18 -14 18 -14 0 -26 29 -26 63 0 24 4 22
44 -20z m397 -798 c6 -22 13 -46 15 -53 2 -7 8 -11 13 -8 5 3 12 -11 16 -31 4
-21 14 -51 22 -67 30 -58 45 -145 31 -182 -14 -39 -27 -42 -52 -15 -14 16 -16
30 -11 78 5 42 3 54 -4 43 -6 -8 -11 -33 -11 -55 0 -22 -7 -53 -16 -70 -9 -17
-17 -63 -19 -105 -5 -94 -15 -162 -25 -174 -5 -5 -14 10 -20 33 -6 23 -15 39
-20 36 -6 -4 -10 13 -10 39 0 25 -4 46 -10 46 -5 0 -10 -6 -10 -14 0 -8 -6
-16 -14 -19 -8 -3 -17 -24 -21 -47 -5 -27 -15 -46 -31 -56 -14 -10 -26 -30
-30 -52 -4 -21 -17 -50 -30 -65 -13 -16 -24 -41 -24 -57 0 -27 -18 -35 -36
-17 -14 13 -23 -5 -18 -36 4 -30 4 -30 -7 -9 -7 12 -17 21 -23 19 -18 -6 -19
-62 -2 -77 18 -14 22 -50 6 -50 -5 0 -10 -11 -10 -25 0 -38 -27 -31 -39 10 -5
20 -17 84 -27 143 -10 59 -24 113 -31 120 -7 7 -13 20 -13 27 0 8 -5 17 -10
20 -14 9 -80 -33 -80 -51 0 -8 -11 -19 -24 -26 -14 -6 -30 -24 -37 -40 -6 -16
-20 -33 -29 -38 -10 -5 -20 -19 -23 -30 -6 -24 8 -17 39 20 53 61 64 73 70 68
9 -10 -57 -99 -141 -193 -44 -49 -100 -114 -124 -143 -42 -51 -44 -52 -63 -35
-11 10 -48 61 -83 113 -60 90 -137 180 -154 180 -7 0 -41 103 -41 123 0 4 9 7
21 7 12 0 19 5 16 13 -2 7 -16 11 -32 9 -35 -5 -111 -37 -119 -51 -4 -6 -16
-11 -27 -11 -10 0 -19 -5 -19 -11 0 -5 -5 -7 -11 -4 -21 14 -1 268 23 290 8 7
9 5 4 -8 -3 -10 -3 -36 0 -58 7 -40 7 -40 26 -19 10 11 20 20 22 20 2 0 18
-23 36 -50 18 -28 41 -57 52 -65 22 -15 48 -10 48 9 0 7 17 12 43 12 23 1 69
4 102 8 33 4 56 4 50 -1 -5 -4 -11 -12 -12 -18 -7 -48 -6 -59 4 -62 7 -3 22
15 34 40 12 25 33 50 46 56 l24 11 -7 -57 c-4 -32 -14 -68 -22 -80 -8 -13 -10
-23 -5 -23 5 0 16 11 23 25 18 34 34 31 27 -5 -4 -17 -2 -30 3 -30 6 0 10 7
10 15 0 8 4 15 9 15 5 0 11 -7 15 -15 7 -20 50 -19 68 3 8 9 25 35 37 58 13
22 30 45 40 51 16 10 17 8 11 -26 -4 -20 -3 -46 0 -57 8 -19 9 -15 25 89 3 17
1 26 -5 22 -6 -3 -10 1 -10 10 0 12 6 15 20 10 19 -6 26 5 34 60 3 19 15 29
48 39 23 7 34 54 19 78 -7 11 -7 18 -1 18 5 0 10 8 10 17 0 27 81 184 92 177
5 -3 6 -19 3 -35 -5 -22 2 -47 27 -99 18 -38 36 -70 39 -70 3 0 12 11 19 25 8
14 19 24 24 22 6 -3 12 11 14 32 3 43 49 168 72 196 9 11 23 35 30 53 16 40
34 37 38 -6 2 -18 8 -32 14 -32 6 0 8 10 4 24 -3 13 1 49 9 80 8 31 15 63 15
71 0 7 5 26 11 42 l10 28 25 -40 c13 -22 29 -58 35 -80z m305 -171 c-3 -9 -6
-18 -6 -20 0 -3 -4 -3 -10 1 -11 7 -2 35 12 35 6 0 7 -7 4 -16z m89 -26 c7 -4
16 -20 20 -35 3 -16 13 -35 20 -43 36 -40 123 -182 148 -242 17 -38 37 -70 47
-73 27 -9 60 -95 53 -138 -6 -41 9 -50 27 -16 7 11 18 18 25 15 9 -3 29 13 52
42 20 26 40 50 43 55 3 4 7 -34 7 -84 1 -51 6 -96 12 -102 8 -8 11 15 11 79 1
65 5 94 16 109 15 19 16 16 12 -37 -5 -61 8 -80 19 -27 10 49 21 14 29 -88 8
-105 1 -151 -20 -133 -8 6 -17 21 -20 34 -4 18 -11 23 -25 19 -13 -3 -21 1
-24 14 -3 11 -5 7 -6 -12 -2 -54 -29 -149 -45 -161 -9 -6 -16 -25 -16 -42 0
-17 -4 -33 -9 -36 -12 -8 -47 34 -60 74 -7 19 -20 51 -31 70 l-19 35 -1 -34
c0 -34 0 -34 -21 -15 -12 10 -35 48 -51 83 -15 35 -31 61 -35 58 -8 -9 -73 78
-73 97 0 9 -5 16 -11 16 -5 0 -19 19 -29 43 -10 23 -28 48 -39 55 -18 10 -21
22 -21 81 0 37 -3 97 -7 132 l-7 64 -6 -46 c-3 -26 -1 -86 4 -134 6 -54 6 -89
0 -93 -5 -4 -19 -52 -32 -106 -12 -56 -30 -109 -40 -120 -15 -17 -19 -39 -21
-111 -1 -49 -4 -91 -6 -93 -5 -5 -47 42 -79 88 -22 33 -24 46 -30 219 l-6 183
25 -6 c23 -6 25 -4 26 31 2 93 -6 148 -18 116 -9 -25 -23 -12 -23 20 0 57 30
103 63 98 4 0 7 5 7 13 0 19 27 41 32 25 7 -20 45 0 58 31 8 18 20 30 31 30
11 0 19 7 20 18 0 13 2 14 6 2 3 -8 12 -18 18 -22z m1723 -100 c16 -16 15 -33
-4 -52 -10 -11 -11 -16 -3 -16 12 0 59 -46 59 -59 0 -13 -25 -61 -32 -61 -8 0
-27 64 -29 95 -1 12 -6 4 -13 -18 -13 -42 -29 -57 -63 -57 -17 0 -25 9 -34 39
-9 32 -9 44 6 75 25 53 85 82 113 54z m-1976 -93 c-7 -14 -12 -34 -12 -44 0
-11 -7 -21 -15 -25 -18 -7 -20 30 -4 88 10 35 12 37 27 23 13 -13 13 -21 4
-42z m863 -52 c4 -21 11 -50 17 -65 11 -28 3 -94 -13 -114 -4 -6 -5 -23 0 -40
l9 -29 18 43 c20 49 29 53 37 14 3 -17 16 -33 30 -39 22 -10 26 -9 30 8 7 26
33 34 52 16 8 -9 15 -19 15 -24 1 -4 9 -26 20 -48 11 -22 19 -45 20 -51 0 -5
11 -25 25 -44 16 -22 25 -48 26 -74 1 -33 2 -36 8 -17 8 31 31 40 31 12 0 -12
5 -21 10 -21 6 0 10 22 10 49 0 50 55 241 74 253 17 11 26 -1 26 -37 0 -25 4
-33 13 -29 9 3 18 -10 26 -38 7 -24 24 -65 38 -92 14 -27 31 -79 38 -115 7
-36 14 -57 15 -46 1 13 6 5 15 -20 l13 -40 1 34 c1 32 2 33 19 18 14 -13 30
-15 70 -10 44 5 52 9 53 27 1 12 5 7 9 -14 7 -34 7 -34 9 12 1 37 6 51 24 63
55 39 97 64 118 70 13 5 35 17 47 29 80 71 92 85 86 100 -5 13 -1 15 25 10 26
-6 32 -3 40 19 6 14 7 41 4 61 -5 32 -3 37 31 57 31 18 36 26 32 45 -5 17 -2
24 9 24 8 0 15 -7 15 -15 0 -8 9 -19 19 -25 21 -11 46 -80 55 -151 5 -46 5
-47 -64 -118 -38 -39 -76 -71 -84 -71 -8 0 -21 -9 -29 -20 -7 -10 -25 -24 -40
-29 -15 -6 -27 -15 -27 -21 0 -5 -12 -10 -26 -10 -14 0 -23 -4 -19 -10 3 -5
-1 -10 -9 -10 -9 0 -21 -9 -28 -20 -7 -11 -18 -20 -25 -20 -7 0 -16 -6 -20
-13 -4 -8 -23 -22 -40 -32 -18 -11 -33 -23 -33 -27 0 -4 -7 -8 -15 -8 -8 0
-23 -9 -32 -20 -20 -22 -59 -26 -98 -8 -19 9 -28 9 -37 0 -23 -23 -55 -14 -69
21 -11 29 -13 30 -16 10 -5 -25 -11 -27 -32 -14 -9 6 -13 23 -11 48 6 75 4
114 -7 121 -6 4 -15 21 -19 37 -4 16 -13 35 -20 42 -17 17 -24 -4 -24 -73 0
-40 3 -52 13 -48 26 9 38 -21 31 -75 -4 -28 -10 -51 -13 -51 -15 0 -31 25 -32
50 -1 24 -2 24 -8 -4 -3 -16 -11 -31 -18 -33 -17 -6 -28 80 -14 118 13 36 3
127 -10 94 -4 -11 -8 -36 -8 -55 -2 -63 -45 -118 -53 -68 -4 21 -6 20 -21 -12
l-16 -35 -3 50 -4 50 -2 -57 c-2 -57 -2 -58 -31 -58 -16 0 -41 4 -55 10 -17 6
-27 6 -32 -1 -3 -6 -17 -8 -29 -5 -13 3 -35 2 -49 -4 -33 -12 -76 3 -77 27 -1
12 -3 10 -9 -7 -7 -23 -8 -24 -15 -5 -4 11 -12 30 -18 43 -13 27 -14 154 -2
269 8 89 -2 146 -16 83 -6 -29 -7 -27 -4 15 3 40 22 211 24 223 1 1 5 2 11 2
5 0 12 -17 15 -37z m-1525 -43 c0 -5 -4 -10 -10 -10 -5 0 -10 5 -10 10 0 6 5
10 10 10 6 0 10 -4 10 -10z m667 -12 c-3 -8 -6 -5 -6 6 -1 11 2 17 5 13 3 -3
4 -12 1 -19z m1960 0 c-3 -8 -6 -5 -6 6 -1 11 2 17 5 13 3 -3 4 -12 1 -19z
m-2005 -28 c-2 -16 -8 -33 -13 -36 -10 -6 -12 59 -3 69 13 13 21 -3 16 -33z
m35 -32 c-3 -7 -5 -2 -5 12 0 14 2 19 5 13 2 -7 2 -19 0 -25z m765 -23 c-2
-14 -6 -25 -8 -25 -2 0 -4 11 -4 25 0 14 4 25 9 25 4 0 6 -11 3 -25z m-818
-36 c10 -50 7 -69 -9 -69 -8 0 -17 12 -21 28 -3 15 -8 33 -10 40 -5 18 4 32
20 32 8 0 16 -14 20 -31z m-2587 -5851 c-3 -8 -6 -5 -6 6 -1 11 2 17 5 13 3
-3 4 -12 1 -19z m-51 -151 c-11 -72 -33 -488 -29 -542 11 -145 24 -285 30
-320 6 -37 5 -39 -11 -25 -39 32 -43 71 -46 485 -2 207 4 266 41 408 13 51 23
47 15 -6z m384 -267 c17 -58 39 -129 51 -159 11 -29 18 -55 16 -57 -7 -7 -54
129 -91 259 -20 71 -43 135 -51 143 -9 9 -15 32 -14 57 0 39 3 36 30 -48 16
-49 43 -137 59 -195z m5100 205 c15 -31 40 -106 40 -120 0 -10 -5 -11 -23 -2
-26 12 -25 12 -31 122 -2 44 -2 67 0 50 3 -16 9 -39 14 -50z m-5842 -15 c1
-23 0 -23 -8 -5 -5 11 -8 34 -8 50 0 29 0 29 8 5 4 -14 8 -36 8 -50z m533
-157 c-8 -14 -10 -8 -11 28 0 25 3 49 8 53 11 12 14 -62 3 -81z m138 -96 c1
-56 -3 -86 -9 -82 -6 4 -9 59 -9 138 1 103 3 121 9 82 5 -27 9 -90 9 -138z
m-615 83 c8 -25 30 -97 49 -160 20 -63 47 -150 60 -192 14 -43 23 -78 21 -78
-14 0 -127 310 -143 395 -7 33 -14 71 -17 85 -7 39 13 4 30 -50z m756 -44 c0
-12 -5 -7 -19 24 -11 24 -11 24 3 6 9 -11 16 -24 16 -30z m-241 -226 c17 -80
40 -174 51 -210 10 -36 26 -87 34 -115 8 -27 22 -67 31 -89 9 -21 14 -40 12
-42 -9 -10 -77 166 -100 261 -52 209 -68 290 -72 368 -3 70 -3 74 4 27 5 -30
22 -120 40 -200z m531 -82 c16 -35 43 -87 61 -115 17 -29 28 -53 25 -53 -4 0
-15 15 -26 33 l-20 32 6 -35 c5 -26 -5 -13 -34 47 -38 77 -62 153 -48 153 3 0
19 -28 36 -62z m5997 0 c-2 -13 -4 -3 -4 22 0 25 2 35 4 23 2 -13 2 -33 0 -45z
m-1530 -88 c19 -88 33 -321 31 -510 0 -85 -3 -144 -5 -131 -3 16 -7 20 -12 12
-5 -7 -11 111 -14 261 -6 241 -12 329 -32 443 -11 60 18 -6 32 -75z m-617
-196 c11 -40 32 -90 46 -111 15 -21 23 -29 18 -18 -5 11 -10 92 -11 180 -2
108 1 153 7 137 5 -12 12 -116 14 -230 3 -145 9 -224 20 -265 19 -69 19 -70 6
-62 -15 9 -65 122 -79 180 -15 63 -33 105 -45 105 -4 0 -5 12 -2 26 4 15 3 23
-2 20 -19 -11 -41 208 -27 260 6 24 10 14 21 -60 8 -49 23 -122 34 -162z
m-4051 26 c34 -205 92 -438 121 -485 42 -68 87 -206 66 -202 -54 10 -177 386
-210 642 -14 104 -21 268 -11 240 2 -5 18 -93 34 -195z m35 40 c9 -58 24 -147
32 -198 9 -51 14 -95 12 -98 -7 -6 -57 209 -68 291 -5 39 -9 88 -9 110 0 60
13 19 33 -105z m5421 -135 c9 -77 18 -259 21 -405 5 -269 11 -339 45 -512 23
-117 25 -208 5 -208 -9 0 -18 22 -26 65 -7 36 -16 67 -20 70 -4 3 -11 -15 -14
-40 -8 -50 -22 -67 -29 -33 -2 13 -5 3 -6 -22 -1 -45 -16 -154 -27 -200 -6
-23 -7 -24 -14 -5 l-9 20 -1 -20 c0 -11 -8 -31 -16 -45 l-15 -25 5 35 c3 19
14 105 26 190 11 85 28 187 36 225 39 176 43 683 9 1055 -10 117 15 -5 30
-145z m-1486 25 c10 -8 32 -55 50 -105 19 -49 41 -101 50 -115 10 -14 32 -54
50 -90 17 -36 47 -87 66 -114 41 -56 43 -70 13 -61 -36 10 -104 90 -140 163
-18 37 -50 98 -72 136 -26 47 -45 99 -57 159 -24 114 -23 132 3 82 11 -22 28
-47 37 -55z m2531 -54 c0 -23 5 -47 11 -53 8 -8 9 -31 3 -75 -4 -34 -9 -52
-11 -38 -2 14 -11 62 -20 107 -15 80 -13 120 7 108 5 -3 10 -25 10 -49z
m-1270 -3 c-27 -83 -127 -266 -302 -555 -57 -93 -137 -194 -138 -173 0 6 31
61 70 123 38 62 111 183 161 270 50 86 109 184 129 217 21 34 48 84 60 113 26
60 38 63 20 5z m-1292 -95 c47 -76 95 -168 89 -174 -8 -8 -84 119 -124 209
-19 44 -8 32 35 -35z m2648 -60 c-17 -83 -39 -168 -43 -165 -10 11 29 187 42
187 3 0 3 -10 1 -22z m-6170 -69 c7 -21 42 -65 84 -106 67 -66 80 -93 45 -93
-16 0 -94 80 -112 114 -28 53 -53 128 -42 124 7 -2 18 -20 25 -39z m172 -15
c32 -9 28 -28 -5 -19 -32 7 -55 25 -32 25 7 0 24 -3 37 -6z m-904 -104 c-6 -5
-49 45 -65 75 -6 11 7 0 29 -25 22 -25 38 -47 36 -50z m218 5 c47 -70 100
-166 94 -172 -2 -3 -26 28 -52 69 -58 89 -69 102 -54 63 15 -41 94 -157 147
-215 24 -27 42 -53 41 -58 -2 -5 17 -28 42 -50 36 -33 41 -41 25 -42 -46 -1
-266 174 -250 199 4 7 1 18 -5 26 -29 36 11 10 73 -46 37 -33 67 -57 67 -54 0
4 -24 33 -52 64 -70 75 -104 142 -111 215 -3 32 -4 57 -2 55 2 -2 18 -26 37
-54z m445 -15 c29 -27 81 -66 115 -87 66 -41 59 -58 -13 -29 -73 30 -114 62
-142 115 -16 28 -25 51 -22 51 4 0 32 -22 62 -50z m-60 -62 c44 -35 89 -69 99
-76 11 -7 -3 -1 -30 13 -65 33 -87 32 -109 -7 -16 -27 -20 -29 -32 -17 -8 8
-24 39 -34 69 -17 46 -17 56 -5 58 8 2 14 8 14 13 0 18 18 8 97 -53z m-538 -5
l22 -38 -31 33 c-16 18 -30 37 -30 43 0 17 17 1 39 -38z m5348 -45 c-31 -54
-113 -145 -97 -108 l11 25 -20 -24 c-27 -30 -27 -18 0 25 11 19 27 34 35 34 9
0 12 5 8 12 -4 7 -3 8 4 4 6 -4 25 12 44 38 41 54 49 51 15 -6z m422 5 c0 -40
-2 -44 -10 -25 -8 21 -3 72 7 72 2 0 4 -21 3 -47z m-132 -25 c-2 -13 -4 -3 -4
22 0 25 2 35 4 23 2 -13 2 -33 0 -45z m1090 14 c-3 -16 -17 -53 -31 -83 -20
-41 -25 -47 -22 -24 7 45 40 135 50 135 5 0 6 -13 3 -28z m-581 -193 c-40
-112 -89 -214 -140 -292 -35 -52 -28 -19 9 47 20 36 35 66 32 66 -3 0 -23 -29
-46 -64 -23 -35 -51 -72 -63 -82 -23 -21 -5 14 79 151 23 39 71 123 105 187
34 65 63 116 65 114 2 -1 -17 -59 -41 -127z m-974 -11 c-7 -7 -12 -8 -12 -2 0
14 12 26 19 19 2 -3 -1 -11 -7 -17z m1618 -238 c0 -5 -8 -10 -17 -10 -15 0
-16 2 -3 10 19 12 20 12 20 0z m-50 -30 c0 -5 -10 -10 -22 -10 -19 0 -20 2 -8
10 19 13 30 13 30 0z m-930 -216 c0 -14 -56 -88 -105 -139 -49 -51 -59 -57
-63 -40 -3 12 4 25 19 36 51 38 119 119 119 143 0 10 6 13 15 10 8 -4 15 -8
15 -10z m-245 -99 c-8 -22 -13 -29 -10 -15 3 14 8 43 12 65 6 31 8 34 11 15 1
-14 -4 -43 -13 -65z"/>
<path d="M12870 14795 c0 -8 5 -15 10 -15 6 0 10 7 10 15 0 8 -4 15 -10 15 -5
0 -10 -7 -10 -15z"/>
<path d="M14820 3621 c0 -5 5 -13 10 -16 6 -3 10 -2 10 4 0 5 -4 13 -10 16 -5
3 -10 2 -10 -4z"/>
<path d="M12548 13416 c-26 -19 -23 -39 5 -31 30 10 41 21 33 34 -9 14 -17 13
-38 -3z"/>
<path d="M12590 13385 c0 -8 4 -15 9 -15 5 0 11 7 15 15 3 9 0 15 -9 15 -8 0
-15 -7 -15 -15z"/>
<path d="M11760 12624 c0 -14 4 -23 9 -20 5 3 7 15 4 26 -7 28 -13 25 -13 -6z"/>
<path d="M11849 11933 c-3 -103 9 -170 37 -207 23 -31 29 -10 10 36 -10 24
-20 80 -23 126 -6 83 -22 114 -24 45z"/>
<path d="M9735 12317 c-4 -14 -36 -70 -71 -124 -35 -54 -64 -101 -64 -104 0
-4 7 -9 14 -12 10 -4 13 -1 10 7 -3 8 0 17 7 22 8 4 10 3 5 -4 -4 -7 -5 -12
-3 -12 18 0 125 236 113 248 -3 2 -8 -7 -11 -21z"/>
<path d="M9900 12290 c-7 -14 -21 -31 -32 -38 -26 -19 -42 -52 -25 -52 20 0
79 77 75 98 -3 14 -6 13 -18 -8z"/>
<path d="M9575 11919 c-4 -6 -5 -12 -2 -15 2 -3 7 2 10 11 7 17 1 20 -8 4z"/>
<path d="M9752 11870 c0 -14 2 -19 5 -12 2 6 2 18 0 25 -3 6 -5 1 -5 -13z"/>
<path d="M14416 8260 c-4 -30 -3 -73 2 -95 l9 -40 7 55 c4 30 3 73 -2 95 l-9
40 -7 -55z"/>
<path d="M14450 8212 c0 -60 4 -91 10 -87 13 8 13 145 0 165 -7 10 -10 -14
-10 -78z"/>
<path d="M14402 8140 c0 -14 2 -19 5 -12 2 6 2 18 0 25 -3 6 -5 1 -5 -13z"/>
<path d="M10337 11378 c-4 -29 -11 -54 -17 -56 -11 -4 -12 -63 -1 -102 6 -21
8 -22 14 -7 12 31 29 20 22 -15 -7 -29 -6 -31 9 -16 11 11 17 42 21 105 4 81
3 90 -19 116 l-23 29 -6 -54z"/>
<path d="M10261 11244 c0 -11 3 -14 6 -6 3 7 2 16 -1 19 -3 4 -6 -2 -5 -13z"/>
<path d="M10188 11174 c-5 -4 -8 -19 -8 -33 1 -23 2 -24 11 -8 11 19 9 53 -3
41z"/>
<path d="M10230 11134 c0 -48 14 -53 23 -7 6 30 0 53 -14 53 -5 0 -9 -21 -9
-46z"/>
<path d="M9986 11108 c-3 -13 -6 -38 -6 -57 0 -33 1 -34 15 -15 14 18 14 18
15 -6 0 -14 4 -31 9 -39 13 -21 34 63 26 106 -5 26 -11 33 -29 33 -16 0 -26
-7 -30 -22z"/>
<path d="M10331 11108 c0 -14 -4 -35 -7 -45 -5 -17 -5 -17 6 0 6 10 9 30 7 45
l-4 27 -2 -27z"/>
<path d="M9961 11024 c0 -11 3 -14 6 -6 3 7 2 16 -1 19 -3 4 -6 -2 -5 -13z"/>
<path d="M9972 10965 c0 -16 2 -22 5 -12 2 9 2 23 0 30 -3 6 -5 -1 -5 -18z"/>
<path d="M10040 10960 c0 -11 5 -20 10 -20 6 0 10 9 10 20 0 11 -4 20 -10 20
-5 0 -10 -9 -10 -20z"/>
<path d="M10072 10950 c0 -19 2 -27 5 -17 2 9 2 25 0 35 -3 9 -5 1 -5 -18z"/>
<path d="M9100 10921 c0 -17 2 -31 4 -31 8 0 13 51 5 56 -5 3 -9 -9 -9 -25z"/>
<path d="M9997 10923 c-15 -25 -17 -152 -3 -193 14 -45 14 -44 15 78 1 114 -1
133 -12 115z"/>
<path d="M9142 10892 c1 -34 15 -43 25 -16 3 8 -1 23 -10 31 -14 15 -16 13
-15 -15z"/>
<path d="M10033 10830 c0 -36 2 -50 4 -32 2 17 2 47 0 65 -2 17 -4 3 -4 -33z"/>
<path d="M9392 10861 c-10 -6 -10 -13 1 -35 l15 -27 6 27 c8 30 -3 47 -22 35z"/>
<path d="M9306 10807 c-16 -12 -15 -16 17 -55 19 -22 37 -39 40 -36 7 8 -4 44
-14 44 -5 0 -9 11 -9 24 0 31 -12 39 -34 23z"/>
<path d="M9740 10778 c0 -25 3 -29 10 -18 13 20 13 50 0 50 -5 0 -10 -15 -10
-32z"/>
<path d="M9643 10716 c4 -10 0 -27 -8 -39 -17 -24 -21 -62 -5 -52 5 3 7 12 4
19 -3 8 4 21 16 29 23 16 24 47 1 55 -10 3 -12 0 -8 -12z"/>
<path d="M9440 10690 c-13 -8 -13 -11 3 -27 16 -16 17 -16 17 10 0 30 0 30
-20 17z"/>
<path d="M9481 10579 c-8 -24 -7 -37 4 -57 14 -26 14 -25 15 31 0 31 -2 57 -4
57 -2 0 -9 -14 -15 -31z"/>
<path d="M9534 10575 c-8 -20 5 -105 16 -105 13 0 15 15 12 70 -4 49 -17 65
-28 35z"/>
<path d="M9618 10559 c-22 -23 -41 -59 -35 -66 3 -3 18 14 33 36 29 44 30 59
2 30z"/>
<path d="M10693 11180 c0 -36 2 -50 4 -32 2 17 2 47 0 65 -2 17 -4 3 -4 -33z"/>
<path d="M10812 11170 c0 -14 2 -19 5 -12 2 6 2 18 0 25 -3 6 -5 1 -5 -13z"/>
<path d="M10817 11133 c-11 -20 -5 -112 8 -116 10 -5 12 7 8 56 -6 65 -8 73
-16 60z"/>
<path d="M10871 11033 c-16 -39 -11 -67 13 -71 23 -5 39 18 25 35 -6 6 -14 24
-18 39 l-7 28 -13 -31z"/>
<path d="M10662 10978 c-8 -26 -10 -28 -11 -11 -1 16 -6 21 -16 17 -25 -10
-17 -54 15 -84 17 -15 30 -34 31 -42 1 -7 7 6 14 29 15 47 9 123 -10 123 -7 0
-17 -15 -23 -32z"/>
<path d="M10721 10984 c0 -11 3 -14 6 -6 3 7 2 16 -1 19 -3 4 -6 -2 -5 -13z"/>
<path d="M10860 10936 c0 -9 5 -16 10 -16 6 0 10 4 10 9 0 6 -4 13 -10 16 -5
3 -10 -1 -10 -9z"/>
<path d="M10900 10925 c0 -9 -7 -18 -15 -21 -25 -10 -17 -24 14 -24 26 0 30
-5 41 -47 10 -41 13 -45 20 -27 9 23 -16 113 -35 126 -16 12 -25 9 -25 -7z"/>
<path d="M11011 10872 c-1 -12 -6 -31 -13 -42 -14 -22 -1 -68 38 -135 l24 -40
-1 35 c0 19 -6 53 -14 75 -8 22 -15 51 -16 65 0 14 -4 34 -9 45 -8 19 -9 19
-9 -3z"/>
<path d="M10657 10771 c-6 -30 1 -71 13 -71 9 0 10 89 0 95 -4 2 -10 -8 -13
-24z"/>
<path d="M11202 10732 c-17 -41 -31 -54 -33 -29 0 6 -6 -15 -14 -48 -7 -34 -9
-69 -4 -80 5 -14 8 -6 8 29 1 40 3 46 15 37 14 -12 21 -1 46 82 17 53 4 59
-18 9z"/>
<path d="M12487 10803 c-11 -10 -8 -83 3 -83 6 0 10 20 10 45 0 46 -2 50 -13
38z"/>
<path d="M11528 10707 c-12 -29 -10 -83 3 -70 6 6 9 28 7 49 -2 29 -5 34 -10
21z"/>
<path d="M11470 10663 c0 -35 3 -44 10 -33 13 20 13 80 0 80 -5 0 -10 -21 -10
-47z"/>
<path d="M11650 10695 c0 -10 -7 -15 -17 -13 -15 2 -19 -6 -21 -44 -3 -48 1
-55 27 -39 13 9 30 111 17 111 -3 0 -6 -7 -6 -15z"/>
<path d="M11521 10574 c0 -11 3 -14 6 -6 3 7 2 16 -1 19 -3 4 -6 -2 -5 -13z"/>
<path d="M13822 2965 c0 -16 2 -22 5 -12 2 9 2 23 0 30 -3 6 -5 -1 -5 -18z"/>
<path d="M8620 3551 c0 -5 5 -13 10 -16 6 -3 10 -2 10 4 0 5 -4 13 -10 16 -5
3 -10 2 -10 -4z"/>
</g>
</svg>
