<?xml version="1.0" standalone="no"?>
<!DOCTYPE svg PUBLIC "-//W3C//DTD SVG 20010904//EN"
 "http://www.w3.org/TR/2001/REC-SVG-20010904/DTD/svg10.dtd">
<svg version="1.0" xmlns="http://www.w3.org/2000/svg"
 width="2224.000000pt" height="1668.000000pt" viewBox="0 0 2224.000000 1668.000000"
 preserveAspectRatio="xMidYMid meet">
<metadata>
Created by potrace 1.16, written by Peter Selinger 2001-2019
</metadata>
<g transform="translate(0.000000,1668.000000) scale(0.100000,-0.100000)"
fill="#000000" stroke="none">
<path d="M0 8340 l0 -8340 11120 0 11120 0 0 8340 0 8340 -11120 0 -11120 0 0
-8340z m8036 4835 c4 -10 20 -15 44 -15 24 0 40 -5 44 -15 3 -8 17 -15 31 -15
14 0 25 -4 25 -10 0 -5 7 -10 15 -10 8 0 15 -7 15 -15 0 -9 9 -15 25 -15 15 0
36 -11 49 -25 13 -14 28 -25 35 -25 6 0 11 -7 11 -15 0 -8 7 -15 15 -15 8 0
15 -7 15 -15 0 -8 7 -15 15 -15 9 0 15 -9 15 -25 0 -16 6 -25 15 -25 8 0 15
-7 15 -15 0 -8 7 -15 15 -15 9 0 15 -9 15 -24 0 -13 7 -26 15 -30 9 -3 15 -18
15 -40 0 -21 6 -36 15 -40 8 -3 15 -17 15 -31 0 -16 6 -25 15 -25 11 0 15 -11
15 -40 0 -22 5 -40 10 -40 6 0 10 -11 10 -25 0 -16 6 -25 15 -25 9 0 15 -9 15
-25 0 -14 7 -28 15 -31 8 -4 15 -17 15 -30 0 -15 6 -24 15 -24 9 0 15 -9 15
-25 0 -16 6 -25 15 -25 10 0 15 -10 15 -30 0 -16 5 -30 10 -30 6 0 21 -11 34
-25 13 -14 28 -25 35 -25 6 0 11 -7 11 -15 0 -8 7 -15 15 -15 8 0 15 -9 15
-20 0 -21 33 -60 50 -60 6 0 10 -7 10 -15 0 -8 7 -15 15 -15 8 0 15 -4 15 -10
0 -5 11 -10 24 -10 14 0 32 -12 46 -30 14 -18 32 -30 46 -30 13 0 24 -4 24
-10 0 -5 14 -10 30 -10 20 0 30 -5 30 -15 0 -8 7 -15 15 -15 8 0 15 -7 15 -15
0 -10 10 -15 29 -15 16 0 31 -6 35 -15 4 -11 20 -15 56 -15 36 0 52 4 56 15 4
8 17 15 30 15 14 0 27 7 30 15 4 9 19 15 35 15 19 0 29 5 29 15 0 9 9 15 25
15 14 0 25 5 25 10 0 6 6 10 14 10 8 0 16 7 20 15 3 8 15 15 26 15 12 0 31 11
44 25 14 14 34 25 50 25 16 0 26 5 26 15 0 11 12 15 45 15 33 0 45 4 45 15 0
11 12 15 45 15 25 0 45 5 45 10 0 6 35 10 85 10 69 0 85 3 85 15 0 13 23 15
144 15 119 0 145 3 150 15 4 11 21 15 61 15 30 0 55 5 55 10 0 6 18 10 40 10
27 0 43 5 46 15 5 11 21 15 60 15 39 0 56 4 60 15 4 10 20 15 45 15 26 0 42 5
45 15 4 10 20 15 45 15 21 0 39 5 39 10 0 6 70 10 190 10 120 0 190 -4 190
-10 0 -6 30 -10 70 -10 54 0 72 -4 76 -15 4 -8 18 -15 34 -15 16 0 30 7 34 15
5 13 41 15 246 15 205 0 241 -2 246 -15 4 -11 21 -15 59 -15 38 0 55 -4 59
-15 3 -10 19 -15 45 -15 25 0 41 -5 45 -15 3 -8 17 -15 31 -15 14 0 25 -4 25
-10 0 -5 14 -10 30 -10 20 0 30 -5 30 -15 0 -8 7 -15 15 -15 8 0 15 -7 15 -15
0 -10 10 -15 30 -15 17 0 30 -4 30 -10 0 -5 11 -10 24 -10 14 0 32 -12 46 -30
14 -18 32 -30 46 -30 13 0 24 -4 24 -10 0 -5 14 -10 30 -10 20 0 30 -5 30 -15
0 -10 10 -15 30 -15 20 0 30 -5 30 -15 0 -10 10 -15 26 -15 16 0 36 -11 50
-25 13 -14 32 -25 44 -25 11 0 23 -7 26 -15 4 -8 12 -15 20 -15 8 0 14 -7 14
-15 0 -9 9 -15 25 -15 30 0 85 -52 85 -80 0 -16 7 -20 30 -20 20 0 30 -5 30
-15 0 -11 12 -15 44 -15 30 0 46 5 50 15 3 8 17 15 31 15 14 0 25 5 25 10 0 6
11 10 25 10 14 0 28 7 31 15 4 8 12 15 20 15 8 0 14 7 14 15 0 10 10 15 26 15
16 0 36 11 50 25 13 14 30 25 39 25 8 0 32 18 54 40 21 22 44 40 50 40 6 0 11
7 11 15 0 8 5 15 10 15 6 0 21 11 34 25 13 14 28 25 35 25 6 0 11 7 11 15 0 8
7 15 15 15 8 0 15 7 15 15 0 8 5 15 11 15 7 0 22 11 35 25 13 14 28 25 34 25
5 0 10 9 10 20 0 20 63 90 80 90 6 0 10 5 10 11 0 14 25 39 39 39 6 0 11 11
11 25 0 14 7 28 15 31 9 4 15 19 15 40 0 22 6 37 15 40 8 4 15 17 15 30 0 15
6 24 15 24 11 0 15 11 15 40 0 29 4 40 15 40 8 0 15 7 15 15 0 8 5 15 10 15 6
0 21 11 34 25 13 14 28 25 35 25 6 0 11 14 11 30 0 17 5 30 11 30 7 0 22 11
35 25 13 14 28 25 34 25 5 0 10 7 10 15 0 10 10 15 30 15 20 0 30 5 30 15 0 9
9 15 25 15 14 0 25 5 25 10 0 6 20 10 45 10 33 0 45 4 45 15 0 12 18 15 100
15 80 0 102 -3 106 -15 4 -9 19 -15 35 -15 16 0 29 -4 29 -10 0 -5 11 -10 25
-10 16 0 25 -6 25 -15 0 -8 6 -15 14 -15 8 0 16 -7 20 -15 3 -8 15 -15 26 -15
12 0 31 -11 44 -25 14 -14 34 -25 50 -25 22 0 26 -4 26 -30 0 -16 4 -30 10
-30 19 0 50 -35 50 -57 0 -13 5 -23 10 -23 20 0 80 -67 80 -89 0 -12 6 -21 15
-21 9 0 15 -9 15 -24 0 -13 7 -26 15 -30 11 -4 15 -20 15 -56 0 -27 5 -50 10
-50 6 0 10 -11 10 -25 0 -16 6 -25 15 -25 11 0 15 -11 15 -40 0 -29 4 -40 15
-40 12 0 15 -13 15 -55 0 -42 3 -55 15 -55 9 0 15 -9 15 -25 0 -16 6 -25 15
-25 8 0 15 -7 15 -15 0 -8 7 -15 15 -15 8 0 15 -7 15 -15 0 -10 10 -15 30 -15
17 0 30 -4 30 -10 0 -5 10 -10 23 -10 13 0 33 -13 47 -30 14 -16 31 -29 38
-30 6 0 12 -7 12 -15 0 -8 4 -15 10 -15 18 0 50 -34 50 -53 0 -20 22 -47 39
-47 6 0 11 -11 11 -25 0 -14 7 -28 15 -31 9 -4 15 -19 15 -40 0 -22 6 -37 15
-40 12 -5 15 -29 15 -125 0 -99 -3 -119 -15 -119 -12 0 -15 -13 -15 -55 0 -42
-3 -55 -15 -55 -11 0 -15 -11 -15 -39 0 -25 -5 -41 -15 -45 -8 -3 -15 -15 -15
-26 0 -11 -4 -20 -10 -20 -5 0 -10 -18 -10 -40 0 -29 -4 -40 -15 -40 -9 0 -15
-9 -15 -25 0 -14 -7 -28 -15 -31 -10 -4 -15 -20 -15 -45 0 -28 -4 -39 -15 -39
-9 0 -15 -9 -15 -25 0 -16 -6 -25 -15 -25 -8 0 -15 -7 -15 -15 0 -8 -7 -15
-15 -15 -9 0 -15 -9 -15 -25 0 -16 -6 -25 -15 -25 -10 0 -15 -10 -15 -30 0
-20 -5 -30 -15 -30 -11 0 -15 -11 -15 -40 0 -29 -4 -40 -15 -40 -12 0 -15 -16
-15 -80 0 -64 -3 -80 -15 -80 -12 0 -15 -13 -15 -55 0 -42 -3 -55 -15 -55 -12
0 -15 -13 -15 -55 0 -42 -3 -55 -15 -55 -11 0 -15 -11 -15 -40 0 -29 -4 -40
-15 -40 -11 0 -15 -11 -15 -40 0 -29 -4 -40 -15 -40 -11 0 -15 -11 -15 -40 0
-22 -4 -40 -10 -40 -5 0 -10 -11 -10 -25 0 -16 -6 -25 -15 -25 -9 0 -15 -9
-15 -25 0 -14 -7 -28 -15 -31 -8 -4 -15 -17 -15 -30 0 -15 -6 -24 -15 -24 -9
0 -15 -9 -15 -25 0 -16 -6 -25 -15 -25 -12 0 -15 -16 -15 -85 0 -69 3 -85 15
-85 12 0 15 -13 15 -55 0 -42 3 -55 15 -55 9 0 15 -9 15 -25 0 -16 6 -25 15
-25 11 0 15 -11 15 -39 0 -25 5 -41 15 -45 9 -3 15 -19 15 -41 0 -19 5 -35 10
-35 6 0 10 -11 10 -25 0 -16 6 -25 15 -25 9 0 15 -9 15 -25 0 -14 7 -28 15
-31 8 -4 15 -17 15 -30 0 -15 6 -24 15 -24 9 0 15 -9 15 -23 0 -22 31 -57 50
-57 6 0 10 -18 10 -39 0 -25 5 -41 15 -45 8 -3 15 -17 15 -31 0 -16 6 -25 15
-25 9 0 15 -9 15 -25 0 -16 6 -25 15 -25 10 0 15 -10 15 -30 0 -20 5 -30 15
-30 9 0 15 -9 15 -25 0 -16 6 -25 15 -25 11 0 15 -11 15 -40 0 -29 4 -40 15
-40 9 0 15 -9 15 -24 0 -13 7 -26 15 -30 10 -3 15 -19 15 -46 0 -29 4 -40 15
-40 11 0 15 -11 15 -40 0 -22 5 -40 10 -40 6 0 10 -22 10 -50 0 -38 4 -50 15
-50 12 0 15 -13 15 -55 0 -42 3 -55 15 -55 13 0 15 -28 15 -189 0 -159 -2
-190 -15 -195 -9 -3 -15 -19 -15 -41 0 -24 4 -35 15 -35 12 0 15 -16 15 -80 0
-64 3 -80 15 -80 12 0 15 -13 15 -55 0 -42 3 -55 15 -55 12 0 15 -17 15 -95 0
-78 3 -95 15 -95 13 0 15 -23 15 -150 0 -127 -2 -150 -15 -150 -11 0 -15 -12
-15 -49 0 -34 -4 -51 -15 -55 -12 -4 -15 -28 -15 -126 0 -100 -2 -120 -15
-120 -13 0 -15 -22 -15 -135 0 -113 -2 -135 -15 -135 -11 0 -15 -11 -15 -40 0
-29 -4 -40 -15 -40 -11 0 -15 -11 -15 -40 0 -22 -4 -40 -10 -40 -5 0 -10 -11
-10 -25 0 -16 -6 -25 -15 -25 -11 0 -15 -11 -15 -40 0 -29 -4 -40 -15 -40 -8
0 -15 -7 -15 -15 0 -8 -4 -15 -10 -15 -17 0 -50 -39 -50 -60 0 -11 -7 -20 -15
-20 -8 0 -15 -7 -15 -15 0 -8 -7 -15 -15 -15 -9 0 -15 -9 -15 -25 0 -16 -6
-25 -15 -25 -11 0 -15 -11 -15 -40 0 -29 -4 -40 -15 -40 -11 0 -15 -11 -15
-39 0 -25 -5 -41 -15 -45 -8 -3 -15 -17 -15 -31 0 -16 -6 -25 -15 -25 -11 0
-15 -12 -15 -49 0 -34 -4 -51 -15 -55 -8 -3 -15 -17 -15 -31 0 -16 -6 -25 -15
-25 -9 0 -15 -9 -15 -24 0 -13 -7 -26 -15 -30 -8 -3 -15 -15 -15 -26 0 -23
-22 -50 -39 -50 -6 0 -11 -10 -11 -23 0 -22 -31 -57 -50 -57 -6 0 -10 -10 -10
-21 0 -22 -60 -89 -80 -89 -5 0 -10 -7 -10 -15 0 -8 -7 -15 -15 -15 -8 0 -15
-7 -15 -15 0 -8 -5 -15 -11 -15 -7 0 -22 -11 -35 -25 -13 -14 -28 -25 -34 -25
-5 0 -10 -7 -10 -15 0 -8 -5 -15 -10 -15 -6 0 -27 -15 -45 -34 -32 -31 -35
-38 -35 -95 0 -48 -3 -61 -15 -61 -11 0 -15 -11 -15 -40 0 -22 -4 -40 -10 -40
-5 0 -10 -9 -10 -20 0 -11 -7 -23 -15 -26 -8 -4 -15 -17 -15 -30 0 -15 -6 -24
-15 -24 -8 0 -15 -7 -15 -15 0 -8 -7 -15 -15 -15 -9 0 -15 -9 -15 -23 0 -22
-31 -57 -50 -57 -6 0 -10 -7 -10 -15 0 -10 -10 -15 -30 -15 -20 0 -30 -5 -30
-15 0 -8 -7 -15 -15 -15 -8 0 -15 -4 -15 -10 0 -5 -11 -10 -25 -10 -14 0 -28
-7 -31 -15 -4 -8 -17 -15 -30 -15 -14 0 -27 -7 -30 -15 -5 -13 -38 -15 -206
-15 l-200 0 -49 -50 c-27 -27 -53 -50 -59 -50 -5 0 -10 -7 -10 -15 0 -10 -10
-15 -30 -15 -20 0 -30 -5 -30 -15 0 -8 -5 -15 -10 -15 -6 0 -21 -11 -34 -25
-14 -14 -34 -25 -50 -25 -16 0 -26 -5 -26 -15 0 -8 -7 -15 -15 -15 -8 0 -15
-7 -15 -15 0 -8 -7 -15 -15 -15 -8 0 -15 -4 -15 -10 0 -5 -11 -10 -25 -10 -14
0 -28 -7 -31 -15 -4 -8 -17 -15 -30 -15 -14 0 -27 -7 -30 -15 -4 -10 -20 -15
-45 -15 -21 0 -39 -4 -39 -10 0 -5 -13 -10 -30 -10 -20 0 -30 -5 -30 -15 0
-12 -13 -15 -60 -15 -47 0 -60 -3 -60 -15 0 -13 -23 -15 -144 -15 -119 0 -145
-3 -150 -15 -4 -11 -22 -15 -76 -15 -40 0 -70 -4 -70 -10 0 -5 -25 -10 -55
-10 -40 0 -57 -4 -61 -15 -5 -12 -25 -15 -89 -15 -64 0 -84 -3 -89 -15 -4 -12
-24 -15 -87 -15 -71 0 -80 2 -69 15 17 20 -8 29 -58 21 -72 -11 -186 -6 -195
10 -5 9 -25 14 -62 14 -30 0 -55 5 -55 10 0 6 -45 10 -115 10 -96 0 -115 3
-115 15 0 12 -15 15 -75 15 -60 0 -75 3 -75 15 0 10 -10 15 -30 15 -20 0 -30
-5 -30 -15 0 -11 -12 -15 -45 -15 -33 0 -45 -4 -45 -15 0 -8 -7 -15 -15 -15
-8 0 -15 -4 -15 -10 0 -5 -11 -10 -25 -10 -14 0 -28 -7 -31 -15 -4 -8 -16 -15
-29 -15 -13 0 -25 -7 -29 -15 -3 -8 -17 -15 -31 -15 -14 0 -25 -4 -25 -10 0
-6 -35 -10 -85 -10 -67 0 -87 -3 -91 -15 -9 -22 -139 -22 -148 0 -4 12 -24 15
-91 15 -50 0 -85 4 -85 10 0 6 -18 10 -40 10 -27 0 -43 5 -46 15 -4 10 -20 15
-45 15 -26 0 -42 5 -45 15 -4 10 -20 15 -45 15 -21 0 -39 5 -39 10 0 6 -13 10
-30 10 -20 0 -30 5 -30 15 0 10 -10 15 -30 15 -20 0 -30 5 -30 15 0 22 -198
22 -206 0 -9 -22 -264 -22 -264 0 0 12 -13 15 -60 15 -47 0 -60 3 -60 15 0 11
-12 15 -45 15 -25 0 -45 5 -45 10 0 6 -18 10 -40 10 -29 0 -40 4 -40 15 0 13
-31 15 -219 15 -185 0 -220 2 -225 15 -3 10 -19 15 -46 15 -22 0 -40 5 -40 10
0 6 -20 10 -45 10 -33 0 -45 4 -45 15 0 10 -10 15 -30 15 -20 0 -30 5 -30 15
0 13 -33 15 -235 15 -150 0 -235 4 -235 10 0 6 -11 10 -25 10 -14 0 -28 7 -31
15 -4 9 -20 15 -43 15 -27 1 -42 8 -61 30 -14 17 -34 30 -47 30 -13 0 -23 5
-23 10 0 6 -7 10 -15 10 -8 0 -15 7 -15 15 0 10 -10 15 -30 15 -20 0 -30 5
-30 15 0 8 -4 15 -10 15 -19 0 -50 35 -50 57 0 19 -5 23 -30 23 -25 0 -30 4
-30 25 0 20 -5 25 -25 25 -20 0 -25 5 -25 25 0 16 -6 25 -15 25 -8 0 -15 7
-15 15 0 8 -5 15 -10 15 -6 0 -27 18 -49 40 -21 22 -44 40 -50 40 -6 0 -11 10
-11 23 0 22 -31 57 -50 57 -6 0 -10 7 -10 15 0 8 -7 15 -15 15 -9 0 -15 9 -15
24 0 13 -7 26 -15 30 -8 3 -15 17 -15 31 0 16 -6 25 -15 25 -9 0 -15 9 -15 24
0 13 -7 26 -15 30 -8 3 -15 17 -15 31 0 16 -6 25 -15 25 -8 0 -15 9 -15 20 0
21 -33 60 -50 60 -5 0 -10 9 -10 21 0 21 -50 79 -69 79 -6 0 -11 10 -11 23 0
13 -13 33 -30 47 -16 14 -29 35 -30 48 0 13 -6 22 -15 22 -9 0 -15 9 -15 25 0
16 -6 25 -15 25 -10 0 -15 10 -15 30 0 20 -5 30 -15 30 -9 0 -15 9 -15 25 0
16 -6 25 -15 25 -9 0 -15 9 -15 25 0 14 -7 28 -15 31 -10 4 -15 20 -15 45 0
28 -4 39 -15 39 -11 0 -15 11 -15 40 0 29 -4 40 -15 40 -11 0 -15 11 -15 40 0
29 -4 40 -15 40 -12 0 -15 13 -15 55 0 42 -3 55 -15 55 -11 0 -15 12 -15 50 0
28 -4 50 -10 50 -6 0 -10 42 -10 105 0 85 -3 107 -15 111 -12 5 -15 25 -15 95
0 70 -3 91 -15 95 -11 4 -15 21 -15 55 0 35 -4 51 -15 55 -11 4 -15 21 -15 55
0 37 -4 49 -15 49 -13 0 -15 37 -15 269 0 230 2 270 15 275 11 4 15 22 15 71
0 51 3 65 15 65 12 0 15 13 15 55 0 42 3 55 15 55 12 0 15 14 15 64 0 48 4 65
15 70 21 8 21 94 0 102 -9 4 -15 19 -15 40 0 22 -6 37 -15 40 -10 4 -15 20
-15 45 0 28 -4 39 -15 39 -11 0 -15 11 -15 40 0 29 -4 40 -15 40 -12 0 -15 17
-15 95 0 78 3 95 15 95 12 0 15 14 15 64 0 48 4 65 15 70 10 3 15 19 15 46 0
29 4 40 15 40 12 0 15 14 15 64 0 48 4 65 15 70 11 4 15 21 15 66 0 45 -4 62
-15 66 -8 4 -15 15 -15 25 0 11 -7 22 -15 25 -12 5 -15 27 -15 109 0 82 3 104
15 109 11 4 15 20 15 55 0 34 4 51 15 55 11 4 15 20 15 56 0 27 5 50 10 50 6
0 10 11 10 25 0 16 6 25 15 25 12 0 15 13 15 55 0 42 3 55 15 55 9 0 15 9 15
25 0 14 7 28 15 31 8 4 15 17 15 30 0 15 6 24 15 24 9 0 15 9 15 25 0 16 6 25
15 25 10 0 15 10 15 30 0 17 4 30 10 30 19 0 50 35 50 57 0 14 6 23 15 23 8 0
15 7 15 15 0 8 7 15 15 15 9 0 15 9 15 25 0 16 6 25 15 25 12 0 15 14 15 65 0
49 -4 67 -15 71 -13 5 -15 36 -15 190 0 157 -2 184 -15 184 -11 0 -15 11 -15
40 0 29 -4 40 -15 40 -12 0 -15 13 -15 55 0 42 -3 55 -15 55 -11 0 -15 11 -15
40 0 29 -4 40 -15 40 -12 0 -15 17 -15 95 0 78 -3 95 -15 95 -13 0 -15 26 -15
174 0 145 -2 175 -15 180 -9 3 -15 18 -15 40 0 21 -6 36 -15 40 -8 3 -15 17
-15 31 0 16 -6 25 -15 25 -11 0 -15 12 -15 49 0 34 -4 51 -15 55 -8 3 -15 17
-15 31 0 14 -4 25 -10 25 -5 0 -10 23 -10 50 0 36 -4 52 -15 56 -9 4 -15 19
-15 40 0 22 -6 37 -15 40 -13 5 -15 35 -15 180 0 148 2 174 15 174 9 0 15 9
15 24 0 13 7 26 15 30 9 3 15 18 15 37 0 23 10 41 40 70 22 22 40 48 40 59 0
11 6 20 14 20 8 0 16 7 20 15 3 8 17 15 31 15 14 0 25 5 25 10 0 6 7 10 15 10
8 0 15 7 15 15 0 8 7 15 15 15 8 0 15 7 15 15 0 9 9 15 25 15 38 0 95 59 95
97 0 18 6 33 15 37 11 4 15 20 15 55 0 34 4 51 15 55 8 3 15 15 15 26 0 11 5
20 10 20 6 0 10 25 10 55 0 42 3 55 15 55 9 0 15 9 15 23 0 22 31 57 50 57 6
0 10 10 10 23 0 22 31 57 50 57 6 0 10 14 10 30 0 17 5 30 10 30 6 0 21 11 34
25 13 14 28 25 35 25 6 0 11 7 11 15 0 8 7 15 15 15 8 0 15 7 15 15 0 8 7 15
15 15 8 0 15 5 15 10 0 6 10 10 23 10 13 0 33 13 47 30 14 16 35 29 48 30 12
0 22 5 22 10 0 6 7 10 15 10 8 0 15 7 15 15 0 12 13 15 60 15 47 0 60 3 60 15
0 12 14 15 70 15 54 0 72 -4 76 -15z m7382 -2133 c-2 -8 -7 -17 -13 -19 -17
-5 -38 14 -32 30 8 20 49 10 45 -11z m-3338 -6957 c0 -8 -8 -15 -17 -14 -11 0
-13 3 -5 6 6 2 10 9 6 14 -3 5 0 9 5 9 6 0 11 -7 11 -15z m-40 -11 c0 -2 -7
-4 -15 -4 -8 0 -15 4 -15 10 0 5 7 7 15 4 8 -4 15 -8 15 -10z"/>
<path d="M7916 12758 c-39 -40 -116 -148 -116 -163 0 -4 -18 -37 -39 -73 -22
-37 -43 -80 -46 -97 -4 -16 -16 -61 -27 -100 -11 -38 -24 -86 -29 -105 -6 -19
-11 -126 -12 -238 l-2 -204 -40 6 c-74 12 -216 89 -274 150 -28 31 -56 56 -60
56 -5 0 -11 -9 -14 -21 -7 -26 10 -204 21 -227 5 -9 13 -39 17 -67 4 -27 13
-65 20 -85 6 -19 20 -60 30 -90 28 -84 89 -188 156 -265 28 -31 29 -35 19 -85
-20 -107 -8 -436 19 -523 6 -18 18 -59 28 -92 37 -130 129 -292 221 -391 l39
-42 -36 -6 c-20 -3 -75 -6 -123 -6 -80 0 -88 -2 -88 -19 0 -29 65 -77 129 -94
47 -13 202 -30 351 -40 l35 -2 -70 -47 c-70 -48 -139 -98 -211 -153 -60 -46
-284 -247 -284 -254 0 -4 -18 -32 -41 -62 -36 -47 -63 -97 -114 -214 -7 -16
-21 -55 -31 -85 -9 -30 -23 -72 -31 -93 -7 -20 -13 -74 -13 -118 0 -66 -4 -86
-20 -107 -29 -36 -10 -50 29 -21 17 12 31 28 31 34 0 23 131 129 233 189 52
31 167 78 166 68 0 -4 -35 -38 -78 -77 -42 -38 -105 -106 -138 -150 -84 -111
-223 -361 -223 -402 0 -10 -7 -31 -15 -47 -8 -15 -15 -37 -15 -48 0 -11 -6
-43 -14 -71 -8 -29 -17 -103 -21 -165 -3 -62 -8 -119 -10 -125 -3 -7 -1 -18 4
-26 13 -20 38 1 46 39 16 71 153 213 289 297 91 57 175 97 184 89 2 -3 -11
-24 -30 -48 -129 -161 -216 -306 -308 -513 -5 -11 -22 -49 -38 -85 -38 -85
-81 -229 -107 -365 -7 -38 -18 -88 -24 -110 -14 -54 -18 -286 -8 -407 9 -101
27 -147 47 -118 5 8 10 26 10 40 0 27 71 242 77 236 3 -2 -1 -30 -7 -63 -7
-32 -16 -80 -21 -108 -13 -73 -14 -403 0 -450 6 -22 15 -76 21 -120 6 -44 14
-89 19 -100 4 -11 16 -45 25 -75 23 -71 34 -96 118 -267 38 -79 74 -143 79
-143 5 0 9 -6 9 -14 0 -17 83 -106 99 -106 10 0 11 9 6 33 -4 17 -9 89 -12
159 -3 97 0 138 12 175 l15 48 -4 -101 c-3 -55 -1 -129 4 -163 9 -64 76 -289
91 -305 5 -6 9 -17 9 -26 0 -17 65 -150 78 -160 4 -3 16 -18 27 -35 47 -75
308 -321 379 -357 49 -25 144 -49 151 -38 3 4 -6 27 -18 51 -13 24 -28 62 -35
84 -6 22 -20 74 -31 115 -25 87 -37 245 -26 316 l8 49 8 -35 c19 -87 30 -120
66 -188 52 -101 127 -189 230 -271 152 -121 425 -240 521 -226 23 3 42 9 42
12 0 3 -31 35 -68 72 -149 144 -229 380 -207 607 l8 79 19 -60 c10 -33 25 -73
33 -90 8 -16 39 -82 69 -145 61 -129 121 -209 217 -290 161 -135 327 -229 484
-275 57 -16 115 -13 115 6 0 6 -20 35 -44 65 -114 139 -183 383 -157 552 13
82 32 164 59 252 l17 55 7 -119 c4 -65 12 -132 17 -149 6 -16 11 -43 11 -59 0
-58 65 -183 154 -298 183 -235 449 -390 749 -434 105 -16 238 -21 249 -11 3 3
-13 41 -35 84 -31 62 -40 92 -44 147 -10 136 52 323 147 442 22 28 40 56 40
62 0 13 17 13 25 0 4 -6 6 -50 6 -98 0 -78 -10 -137 -41 -252 -5 -19 -15 -55
-21 -79 -6 -26 -23 -56 -40 -72 -16 -15 -29 -30 -29 -34 0 -10 138 0 190 14
153 41 309 130 429 245 l63 61 -5 -52 c-8 -69 -68 -173 -154 -263 -35 -38 -62
-74 -58 -80 10 -17 173 -12 325 10 110 16 156 28 215 55 48 22 75 29 75 21 0
-6 -20 -43 -45 -80 -24 -38 -43 -72 -40 -75 15 -25 260 0 415 41 99 26 259
104 340 165 36 28 100 87 143 132 42 46 77 80 77 76 0 -3 -12 -29 -26 -58 -28
-55 -86 -132 -153 -206 -23 -25 -41 -48 -41 -53 0 -11 116 -10 160 2 177 46
374 163 515 304 73 73 99 108 132 176 23 47 47 107 53 134 6 27 15 56 20 65 8
14 10 13 16 -4 9 -27 105 -117 179 -169 77 -55 267 -137 282 -122 3 3 0 27 -8
54 -20 71 -18 307 5 402 37 154 62 223 78 214 4 -3 8 -17 8 -32 0 -15 13 -52
30 -83 19 -36 27 -64 23 -78 -6 -22 -5 -23 23 -8 50 26 205 200 266 298 81
130 128 231 155 334 17 68 23 280 9 363 -6 36 -5 52 2 52 6 0 41 -41 78 -90
l67 -90 24 22 c13 12 27 35 32 52 6 17 21 61 35 98 23 62 39 161 53 329 6 69
-29 276 -63 378 -14 40 -23 75 -22 77 2 1 26 -29 53 -67 78 -109 83 -115 92
-106 12 13 5 177 -13 302 -50 347 -102 511 -216 678 -22 33 -37 61 -35 63 6 6
70 -31 135 -79 35 -26 57 -36 64 -29 5 5 8 44 5 88 -6 121 -37 261 -78 354 -6
14 -17 39 -24 55 -7 17 -33 73 -58 125 -24 52 -48 106 -52 120 -4 14 -26 57
-49 95 -23 39 -50 90 -61 115 -10 25 -31 61 -45 80 -15 19 -40 58 -55 85 -32
55 -71 107 -154 203 -30 34 -51 65 -48 68 3 4 33 -19 65 -50 32 -31 62 -56 65
-56 46 0 -105 317 -230 483 l-36 48 45 47 c25 26 76 91 113 145 36 53 68 97
70 97 1 0 29 -12 61 -27 52 -24 71 -28 154 -28 81 1 103 5 153 28 70 32 147
106 174 167 22 48 36 160 20 160 -5 0 -7 6 -4 14 9 22 -38 111 -83 160 -47 51
-133 95 -201 103 -27 3 -53 11 -56 16 -4 6 -6 58 -4 116 1 86 5 109 19 121 9
8 35 38 57 65 22 28 43 52 46 55 11 9 75 125 103 185 15 33 35 74 43 90 45 91
83 244 83 333 0 51 -14 54 -73 13 -48 -32 -179 -101 -194 -101 -6 0 -45 -16
-88 -35 -43 -20 -79 -34 -81 -32 -3 3 2 36 26 175 11 62 5 207 -12 287 -24
115 -84 286 -131 375 -27 52 -58 111 -68 130 -24 49 -83 115 -96 107 -5 -3
-13 -48 -16 -99 -7 -99 -19 -143 -68 -241 -57 -112 -101 -167 -289 -356 -215
-216 -458 -390 -748 -534 -60 -30 -118 -60 -128 -65 -10 -6 -37 -19 -59 -29
-22 -9 -60 -30 -84 -45 l-44 -27 -121 92 c-141 108 -223 165 -286 197 l-45 24
38 9 c29 7 55 5 103 -8 130 -35 88 11 -90 99 -72 36 -162 74 -201 86 -38 12
-78 26 -88 32 -11 5 -80 13 -154 18 -74 4 -137 10 -140 13 -7 8 35 28 97 47
33 10 55 22 55 30 0 8 -26 27 -59 43 -157 75 -607 43 -829 -59 -43 -20 -80
-35 -82 -33 -2 2 3 31 10 64 8 33 15 82 17 110 4 64 -8 67 -104 21 -82 -39
-167 -109 -204 -168 l-25 -39 -21 28 c-68 91 -120 123 -146 91 -19 -24 -23
-92 -8 -145 8 -29 12 -53 10 -53 -2 0 -32 11 -66 24 -149 56 -320 76 -438 53
-41 -9 -100 -19 -130 -23 -60 -7 -210 -72 -210 -90 0 -6 33 -17 74 -23 41 -7
77 -15 81 -19 3 -4 -33 -14 -82 -23 -214 -39 -358 -95 -491 -190 -48 -34 -56
-36 -80 -26 -41 18 -212 119 -218 128 -3 5 -13 9 -23 9 -9 0 -23 6 -29 12 -7
7 -41 29 -76 48 -81 44 -180 101 -185 106 -3 3 9 19 27 37 95 98 112 272 35
373 -12 17 -23 36 -23 42 0 11 -86 67 -129 84 -93 35 -207 27 -309 -23 -74
-36 -70 -38 -129 77 -22 45 -49 94 -59 109 -9 14 -23 48 -30 73 -7 26 -19 74
-28 107 -9 32 -16 73 -16 90 0 16 -5 47 -11 68 -14 52 -47 51 -103 -5z m610
-589 c100 -38 174 -137 174 -234 0 -41 -26 -114 -51 -144 l-19 -23 -66 48
c-130 97 -312 310 -287 335 41 41 165 49 249 18z m-299 -900 c-3 -9 -1 -23 4
-30 6 -11 11 -10 27 4 21 19 42 22 42 6 0 -7 -5 -29 -11 -49 -7 -22 -9 -54 -4
-76 l7 -39 36 42 c21 23 52 49 70 57 30 16 32 15 32 -1 0 -10 -9 -29 -20 -43
-23 -30 -25 -50 -5 -50 20 0 57 38 50 50 -4 6 9 11 27 11 18 1 58 3 88 5 30 1
61 -1 70 -6 10 -6 11 -9 2 -10 -12 0 -72 -27 -287 -130 -55 -27 -115 -51 -132
-55 -18 -4 -33 -10 -33 -14 0 -4 -18 -18 -41 -30 -56 -32 -65 -20 -49 63 7 36
10 77 6 90 -8 32 18 92 43 99 34 9 62 66 55 112 -6 36 -5 38 10 25 10 -7 15
-21 13 -31z m5685 -91 c2 -13 9 -22 16 -20 9 1 10 -6 6 -23 -5 -21 -3 -25 16
-25 l21 0 -22 -32 c-12 -18 -38 -48 -57 -65 -29 -27 -32 -36 -22 -48 12 -15 3
-37 -25 -57 -5 -4 -6 -10 -3 -13 7 -8 113 40 139 62 13 11 19 10 37 -7 28 -26
36 -60 29 -121 -5 -39 -3 -51 11 -61 25 -18 52 -59 52 -78 -1 -10 -7 -8 -21
10 -20 23 -47 40 -176 105 -29 14 -61 37 -72 51 -10 13 -26 24 -35 24 -17 0
-218 96 -256 123 l-24 17 25 0 c37 0 87 27 140 76 60 55 148 100 201 103 10 1
18 -8 20 -21z m68 -162 c0 -3 -4 -8 -10 -11 -5 -3 -10 -1 -10 4 0 6 5 11 10
11 6 0 10 -2 10 -4z m766 -381 c76 -45 125 -148 109 -227 -10 -50 -42 -111
-72 -140 -66 -62 -176 -92 -258 -69 -72 20 -73 22 -37 95 18 36 32 68 32 71 0
5 12 35 50 120 11 25 36 119 44 167 l7 37 42 -15 c23 -8 60 -26 83 -39z
m-5047 -692 c-3 -32 -11 -69 -16 -83 -15 -35 -108 -191 -127 -212 -26 -29 -21
-121 8 -154 l23 -28 23 60 c12 32 24 68 25 79 3 29 31 30 49 2 16 -23 13 -87
-4 -87 -4 0 -10 -32 -13 -70 -6 -66 -16 -111 -40 -170 -5 -14 -13 -38 -17 -55
-4 -16 -11 -38 -15 -47 -14 -33 23 -19 52 19 40 54 106 118 152 149 22 14 44
38 49 53 9 24 14 27 43 23 l32 -5 -6 94 c-4 51 -3 89 1 84 12 -14 60 -164 68
-213 6 -38 4 -44 -25 -69 -20 -18 -31 -37 -31 -54 0 -15 -7 -43 -15 -62 -8
-20 -14 -47 -14 -59 l2 -23 4 23 c2 12 9 22 14 22 5 0 9 9 9 19 0 11 7 26 15
35 8 8 15 22 15 30 0 9 5 16 10 16 16 0 12 -26 -9 -62 -18 -31 -27 -54 -61
-164 -17 -55 -5 -227 17 -245 8 -7 21 -25 29 -40 7 -15 23 -30 33 -34 25 -8
30 -35 33 -175 2 -129 -2 -142 -96 -287 -82 -127 -182 -197 -375 -264 -83 -28
-265 -31 -353 -6 -123 36 -179 70 -242 143 -32 38 -66 87 -77 109 -28 62 -34
157 -14 245 9 41 25 122 36 180 12 58 27 120 35 139 l14 34 26 -24 c21 -20 27
-21 34 -9 5 8 10 21 10 29 0 25 205 218 261 246 59 30 154 116 162 145 3 13
-3 26 -21 38 l-25 19 40 70 c50 88 52 95 62 235 6 90 13 124 29 150 11 18 24
51 28 73 4 22 13 49 21 61 7 12 12 36 11 54 -3 28 2 37 31 57 19 13 48 23 65
23 l32 0 -7 -57z m2766 -111 c23 -26 49 -64 58 -84 10 -20 21 -40 26 -43 5 -3
15 -28 21 -56 11 -46 11 -53 -4 -61 -9 -5 -16 -18 -16 -28 0 -11 -15 -37 -34
-58 -31 -34 -33 -39 -18 -49 13 -7 23 -6 39 5 13 8 29 12 38 9 8 -4 17 -2 20
3 4 6 10 10 15 10 8 0 12 -29 46 -290 15 -123 30 -181 43 -177 3 1 18 -9 31
-21 14 -13 42 -33 63 -44 22 -10 60 -34 85 -52 26 -19 58 -37 72 -40 l25 -7
-25 21 c-14 11 -41 31 -60 44 -56 37 -122 108 -141 152 -12 26 -26 108 -39
220 -11 99 -27 198 -36 222 -9 23 -13 50 -10 59 6 14 11 11 37 -14 26 -27 28
-34 18 -56 -8 -18 -8 -43 1 -98 7 -41 16 -96 21 -124 24 -152 47 -202 124
-276 37 -36 62 -44 80 -29 23 19 161 -60 235 -135 34 -33 65 -68 70 -75 22
-41 37 -164 35 -285 -2 -182 -23 -241 -117 -340 -38 -40 -88 -83 -111 -95 -23
-12 -54 -28 -69 -36 -41 -22 -117 -32 -315 -40 -179 -7 -180 -7 -264 21 -79
27 -89 33 -170 114 -61 61 -95 105 -118 152 -30 61 -34 80 -43 211 -14 185 4
340 51 443 17 37 46 115 65 173 19 59 45 132 59 162 42 96 57 176 57 314 0 84
5 149 16 189 12 47 13 66 4 85 -17 38 2 49 37 23 l28 -22 8 25 c5 14 12 26 15
26 4 0 25 -21 47 -48z m-2685 -105 c0 -23 -17 -47 -32 -47 -4 0 -8 16 -8 35 0
28 4 35 20 35 14 0 20 -7 20 -23z m2910 -2 c14 -17 7 -102 -10 -119 -31 -31
-55 70 -28 114 15 24 22 25 38 5z m-113 -37 c-3 -7 -5 -2 -5 12 0 14 2 19 5
13 2 -7 2 -19 0 -25z m-2737 -50 c0 -38 -3 -49 -10 -38 -13 20 -13 90 0 90 6
0 10 -24 10 -52z m-223 -30 c-3 -8 -6 -5 -6 6 -1 11 2 17 5 13 3 -3 4 -12 1
-19z m478 -130 c18 -18 46 -45 64 -59 29 -25 30 -29 19 -60 -21 -64 -43 -77
-54 -31 -9 36 -22 52 -44 52 -28 0 -55 102 -33 123 10 11 15 9 48 -25z m523
-1735 c11 -21 23 -56 27 -76 4 -21 15 -42 25 -47 10 -5 21 -26 25 -47 3 -21
12 -47 19 -58 7 -11 23 -51 36 -89 19 -59 21 -74 11 -108 -14 -47 -34 -57 -62
-32 -19 17 -20 27 -15 94 5 70 5 73 -9 45 -8 -16 -14 -49 -15 -71 0 -26 -8
-51 -21 -68 -19 -24 -21 -37 -16 -99 3 -47 0 -84 -9 -110 -8 -22 -14 -51 -14
-66 0 -54 -17 -55 -35 -2 -9 28 -21 49 -26 45 -5 -3 -9 17 -9 45 0 41 -3 49
-15 45 -8 -4 -15 -12 -15 -20 0 -8 -6 -14 -14 -14 -9 0 -16 -17 -20 -47 -11
-78 -15 -85 -40 -79 -20 5 -25 0 -34 -33 -7 -21 -12 -46 -12 -55 0 -9 -6 -16
-13 -16 -17 0 -47 -62 -47 -98 0 -21 -3 -23 -10 -12 -10 16 -13 11 -23 -35 -3
-11 -5 -3 -6 18 -1 37 -14 50 -24 23 -3 -8 -3 -25 -1 -38 5 -22 5 -22 -7 -3
-17 29 -17 29 -34 15 -21 -18 -19 -62 6 -83 20 -18 23 -61 4 -55 -5 2 -12 -10
-15 -27 -6 -36 -22 -35 -33 3 -5 15 -12 36 -17 47 -13 34 -40 168 -40 202 0
22 -6 36 -19 42 -10 6 -24 24 -29 41 -8 23 -15 28 -29 23 -35 -13 -73 -47 -73
-65 0 -16 -11 -23 -32 -19 -5 0 -23 -21 -40 -49 -18 -27 -39 -50 -45 -50 -7 0
-13 -4 -13 -9 0 -5 -3 -17 -7 -27 -5 -13 -3 -15 8 -9 8 5 5 -2 -6 -14 -18 -21
-20 -21 -27 -4 -6 13 -7 11 -3 -8 5 -30 -31 -79 -98 -131 l-42 -33 28 37 c39
52 34 65 -8 19 -19 -21 -35 -46 -35 -55 0 -26 -31 -68 -46 -62 -9 3 -14 -2
-14 -14 0 -52 -38 -19 -130 113 -28 39 -80 108 -116 152 -57 70 -104 149 -104
175 0 4 10 6 21 3 16 -4 20 -2 17 8 -11 34 -111 21 -159 -21 -19 -16 -44 -30
-56 -30 -13 0 -23 -4 -23 -10 0 -5 -5 -10 -11 -10 -19 0 3 296 24 317 3 3 5
-5 5 -18 -3 -49 2 -89 12 -89 6 0 10 8 10 19 0 33 36 18 77 -34 22 -27 50 -59
62 -69 19 -17 23 -18 39 -4 10 9 47 18 92 22 41 3 94 9 117 12 41 6 42 6 37
-17 -21 -85 9 -106 44 -31 20 42 53 72 78 72 12 0 -9 -126 -23 -142 -8 -9 -13
-22 -11 -28 2 -7 16 5 31 27 l27 38 0 -45 1 -45 18 34 18 34 7 -26 c5 -23 12
-27 40 -27 37 0 54 15 86 77 12 23 32 49 45 57 l25 16 -5 -51 c-6 -55 3 -85
16 -53 4 10 8 37 8 59 1 23 7 47 14 54 10 11 9 13 -5 8 -11 -4 -18 -1 -18 7 0
20 12 27 26 15 14 -12 22 1 42 66 5 17 17 31 28 33 47 9 78 65 55 101 -10 16
16 108 47 166 12 22 22 45 22 51 0 6 6 17 14 23 12 10 17 8 26 -9 6 -12 10
-33 9 -48 -2 -15 1 -33 6 -41 4 -8 21 -41 37 -73 16 -32 34 -58 39 -58 5 0 15
12 21 26 8 17 18 24 30 21 15 -4 18 1 18 38 0 45 65 200 94 224 9 7 16 21 16
30 1 24 35 65 49 57 6 -4 11 -23 11 -42 0 -19 4 -34 10 -34 5 0 9 15 8 33 0
17 7 61 16 97 42 159 35 145 56 123 10 -11 27 -38 38 -60z m387 -253 c-5 -16
-10 -19 -18 -11 -7 7 -6 15 3 26 17 20 24 13 15 -15z m144 -79 c8 -17 17 -31
21 -31 5 0 20 -20 34 -45 15 -24 32 -48 39 -52 18 -11 72 -100 92 -151 24 -59
55 -119 55 -104 0 31 23 5 61 -69 30 -60 43 -79 52 -70 20 20 39 13 31 -11 -6
-23 -6 -23 20 2 15 13 43 48 62 77 31 46 54 72 54 60 0 -3 -7 -21 -16 -42 -8
-21 -12 -45 -8 -54 13 -32 14 -202 1 -279 -13 -70 -36 -137 -37 -105 0 7 -7
10 -15 7 -10 -4 -15 -20 -15 -44 0 -78 -35 -51 -96 75 -33 69 -39 76 -42 53
-2 -16 -7 -28 -11 -28 -13 0 -46 44 -81 107 -19 34 -37 60 -41 57 -7 -4 -58
60 -97 121 -54 86 -68 104 -79 105 -6 0 -19 10 -27 21 -14 20 -15 19 -21 -27
-17 -122 -60 -258 -75 -234 -5 8 -12 7 -24 -5 -12 -13 -16 -37 -16 -108 0 -91
-10 -132 -28 -112 -5 6 -31 37 -59 70 l-50 60 -7 208 -6 209 30 -7 c29 -6 30
-5 32 32 2 52 -3 126 -9 137 -3 5 -10 1 -15 -8 -25 -45 -38 29 -16 93 15 43
23 50 54 46 13 -1 24 3 24 9 0 22 22 37 37 25 9 -8 17 -8 26 0 8 6 17 8 20 5
3 -3 13 10 21 30 10 24 21 36 35 36 11 0 23 5 26 10 9 14 47 -27 64 -69z
m2059 -53 c17 -17 15 -38 -5 -60 -15 -16 -15 -18 0 -18 9 0 21 -9 27 -20 6
-11 17 -20 25 -20 20 0 19 -19 -3 -64 -22 -46 -37 -35 -47 37 -9 57 -20 60
-32 10 -5 -21 -14 -38 -20 -38 -6 0 -15 -3 -19 -7 -14 -15 -54 -8 -75 13 -23
23 -21 44 10 113 25 54 107 86 139 54z m-2403 -124 c-9 -29 -22 -55 -30 -58
-9 -3 -13 -21 -13 -52 0 -25 -5 -51 -11 -57 -16 -16 -14 31 3 123 18 91 30
126 48 132 20 7 22 -29 3 -88z m1055 -60 c0 -18 5 -36 10 -39 15 -9 12 -96 -4
-127 -17 -32 -8 -100 10 -77 6 8 17 32 24 53 12 37 14 38 26 21 8 -10 14 -24
14 -31 0 -7 14 -19 31 -28 29 -15 31 -14 53 11 l23 26 26 -19 c15 -10 27 -26
27 -35 0 -8 7 -24 15 -35 8 -10 15 -27 15 -37 0 -10 14 -32 31 -49 24 -25 32
-43 39 -92 4 -34 8 -51 9 -40 0 12 7 27 15 33 12 10 17 5 28 -26 l13 -38 6 80
c9 105 73 298 97 293 12 -2 18 -16 20 -46 3 -37 6 -42 22 -37 16 5 21 -3 34
-46 9 -29 22 -59 29 -68 21 -25 56 -121 66 -181 5 -30 9 -47 10 -37 2 31 18
10 27 -35 l8 -43 5 53 6 53 34 -25 c19 -14 37 -23 42 -21 4 3 26 6 48 7 34 1
41 5 42 22 1 12 5 6 9 -14 6 -30 8 -31 10 -10 1 14 3 40 4 59 1 29 7 36 51 59
28 15 56 32 62 38 7 7 31 15 52 19 27 4 42 13 46 26 4 10 13 19 21 19 8 0 23
9 33 19 10 10 28 22 40 26 16 5 21 15 21 41 0 36 8 42 28 22 9 -9 18 -9 37 0
23 11 25 17 25 74 l0 63 41 18 c38 16 41 20 35 47 -3 17 -2 30 1 30 4 0 26
-20 49 -45 42 -46 64 -99 64 -153 0 -17 5 -34 10 -37 14 -8 -5 -43 -41 -77
-16 -15 -29 -24 -29 -21 0 3 -16 -13 -36 -35 -19 -23 -50 -46 -68 -52 -18 -6
-43 -22 -54 -35 -12 -14 -31 -25 -42 -25 -10 0 -24 -9 -30 -20 -6 -12 -21 -20
-36 -20 -14 0 -22 -4 -19 -10 4 -6 -5 -10 -20 -10 -18 0 -29 -6 -32 -20 -3
-11 -11 -20 -18 -20 -6 0 -20 -9 -30 -20 -10 -11 -24 -20 -30 -20 -7 0 -29
-13 -50 -30 -21 -16 -43 -30 -49 -30 -6 0 -19 -9 -29 -20 -19 -23 -55 -26
-103 -8 -18 6 -40 8 -50 3 -11 -4 -30 -8 -44 -9 -20 -1 -27 6 -35 32 -13 44
-32 41 -26 -5 1 -6 -3 -14 -9 -18 -5 -3 -10 -1 -10 4 0 6 -6 11 -14 11 -19 0
-25 39 -13 102 9 56 -3 115 -23 103 -6 -4 -10 8 -10 29 0 25 -6 38 -20 46 -17
9 -22 7 -30 -15 -15 -40 -13 -118 3 -112 29 11 48 -19 46 -75 -2 -62 -7 -88
-18 -88 -9 0 -41 65 -42 88 -1 9 -4 2 -8 -17 -9 -50 -28 -50 -41 0 -9 32 -9
53 -1 80 13 44 15 119 2 119 -11 0 -21 -35 -21 -73 0 -34 -24 -83 -45 -90 -11
-5 -15 0 -15 18 0 14 -4 25 -9 25 -11 0 -21 -25 -21 -53 0 -39 -19 -4 -23 43
-3 36 -4 32 -5 -21 l-2 -66 -35 -6 c-39 -6 -84 11 -86 33 0 8 -7 0 -15 -17
-15 -35 -44 -45 -44 -15 0 9 -4 13 -8 7 -11 -15 -84 -12 -90 3 -3 10 -7 10
-18 1 -11 -9 -16 -5 -25 17 -10 23 -13 25 -16 12 -7 -28 -17 -21 -35 25 -27
65 -33 171 -14 244 10 37 14 83 12 115 -3 29 -5 62 -6 72 0 27 -11 14 -21 -26
-7 -28 -7 -25 -4 17 11 142 22 232 30 244 12 21 35 -15 35 -55z m-1850 -29 c0
-8 -4 -15 -9 -15 -5 0 -14 7 -21 15 -10 13 -9 15 9 15 12 0 21 -6 21 -15z
m807 -7 c-3 -8 -6 -5 -6 6 -1 11 2 17 5 13 3 -3 4 -12 1 -19z m-7 -53 c0 -8
-4 -15 -10 -15 -5 0 -10 7 -10 15 0 8 5 15 10 15 6 0 10 -7 10 -15z m926 -31
c-3 -9 -6 -21 -6 -27 0 -7 -4 -7 -9 2 -10 16 -4 41 11 41 6 0 7 -7 4 -16z
m-998 -61 c10 -46 7 -73 -9 -73 -12 0 -25 29 -33 72 -5 30 -3 37 11 41 10 3
19 5 20 6 1 0 6 -20 11 -46z m975 -53 c-4 -42 -2 -60 6 -60 6 0 11 4 11 9 0 5
5 22 12 38 l11 28 7 -30 c13 -52 11 -260 -2 -273 -17 -17 -38 4 -38 39 0 27
-2 29 -26 23 l-27 -7 8 54 c8 52 9 72 5 143 -2 39 20 107 32 100 4 -3 5 -32 1
-64z"/>
<path d="M13743 11048 c-35 -17 -29 -38 10 -38 34 0 57 15 57 37 0 16 -36 16
-67 1z"/>
<path d="M13803 11005 c-3 -9 -3 -18 -1 -21 9 -9 38 8 38 22 0 19 -29 18 -37
-1z"/>
<path d="M9911 9360 c-5 -17 -25 -39 -45 -51 -31 -18 -76 -73 -76 -93 0 -13
49 20 109 75 38 35 61 64 61 77 0 34 -36 28 -49 -8z"/>
<path d="M9548 9340 c-3 -11 -42 -61 -129 -171 -31 -39 -66 -88 -78 -110 -21
-36 -21 -39 -4 -39 37 0 64 13 59 26 -3 8 0 14 7 14 7 0 18 8 24 18 100 147
143 226 143 263 0 12 -18 11 -22 -1z"/>
<path d="M9618 8674 c-5 -4 -8 -23 -8 -43 1 -30 2 -33 11 -18 11 19 8 73 -3
61z"/>
<path d="M12370 9688 c0 -13 5 -30 10 -38 7 -11 10 -5 10 23 0 20 -4 37 -10
37 -5 0 -10 -10 -10 -22z"/>
<path d="M12514 8706 c-3 -8 -4 -64 -2 -123 3 -93 7 -116 32 -170 25 -54 50
-82 63 -69 2 2 -5 30 -17 62 -27 76 -50 192 -50 254 0 49 -15 75 -26 46z"/>
<path d="M12940 8671 c0 -6 4 -13 10 -16 6 -3 7 1 4 9 -7 18 -14 21 -14 7z"/>
<path d="M10623 7605 c0 -22 2 -30 4 -17 2 12 2 30 0 40 -3 9 -5 -1 -4 -23z"/>
<path d="M10566 7546 c7 -29 -13 -106 -28 -106 -10 0 -9 -84 1 -120 l7 -25 12
23 c7 12 18 22 24 22 10 0 8 -14 -7 -55 -7 -18 -5 -17 18 4 22 20 27 33 26 70
0 25 3 66 7 90 5 33 3 47 -8 55 -7 6 -24 24 -37 41 l-23 30 8 -29z"/>
<path d="M10500 7460 c0 -5 5 -10 10 -10 6 0 10 5 10 10 0 6 -4 10 -10 10 -5
0 -10 -4 -10 -10z"/>
<path d="M10472 7355 c0 -16 2 -22 5 -12 2 9 2 23 0 30 -3 6 -5 -1 -5 -18z"/>
<path d="M10430 7233 c1 -54 2 -57 16 -38 17 23 15 86 -3 93 -10 3 -13 -12
-13 -55z"/>
<path d="M10378 7274 c-5 -4 -8 -19 -8 -33 1 -23 2 -24 11 -8 11 19 9 53 -3
41z"/>
<path d="M10562 7208 c-1 -20 -6 -40 -12 -43 -5 -3 -10 -11 -10 -18 0 -7 6 -5
16 4 10 11 14 29 11 55 l-4 39 -1 -37z"/>
<path d="M10136 7205 c-10 -35 -7 -107 4 -100 6 3 10 18 11 33 1 19 4 13 10
-17 5 -25 13 -49 18 -54 20 -20 41 104 23 143 -11 23 -60 20 -66 -5z"/>
<path d="M10105 7121 c-3 -5 -1 -12 5 -16 5 -3 10 1 10 9 0 18 -6 21 -15 7z"/>
<path d="M10122 7040 c0 -19 2 -27 5 -17 2 9 2 25 0 35 -3 9 -5 1 -5 -18z"/>
<path d="M10212 7040 c0 -19 2 -27 5 -17 2 9 2 25 0 35 -3 9 -5 1 -5 -18z"/>
<path d="M10237 7033 c-3 -16 -1 -32 4 -37 5 -6 9 4 9 27 0 44 -6 48 -13 10z"/>
<path d="M9060 6990 c0 -16 5 -30 10 -30 6 0 10 14 10 30 0 17 -4 30 -10 30
-5 0 -10 -13 -10 -30z"/>
<path d="M10145 6991 c-3 -6 -5 -22 -5 -38 1 -15 -2 -48 -5 -73 -4 -28 -1 -66
9 -100 l15 -55 0 106 c1 59 4 121 7 138 6 30 -7 44 -21 22z"/>
<path d="M9114 6955 c0 -38 7 -43 26 -19 11 12 10 18 -6 35 -20 19 -20 19 -20
-16z"/>
<path d="M10193 6890 c0 -36 2 -50 4 -32 2 17 2 47 0 65 -2 17 -4 3 -4 -33z"/>
<path d="M9412 6931 c-14 -8 -6 -41 10 -41 6 0 8 -10 5 -21 -3 -12 -2 -18 2
-13 29 31 14 94 -17 75z"/>
<path d="M9313 6867 c-13 -5 -23 -13 -23 -16 0 -4 20 -26 45 -50 44 -43 45
-43 45 -17 0 14 -4 26 -10 26 -5 0 -10 11 -10 24 0 33 -19 46 -47 33z"/>
<path d="M9840 6833 l1 -38 15 28 c15 27 12 47 -7 47 -5 0 -9 -17 -9 -37z"/>
<path d="M9720 6761 c6 -12 7 -21 1 -21 -5 0 -12 -11 -15 -24 -3 -13 -9 -31
-12 -40 -3 -9 -2 -16 4 -16 5 0 12 14 16 30 3 18 12 30 21 30 24 0 16 54 -8
58 -16 3 -17 1 -7 -17z"/>
<path d="M9478 6743 c-23 -6 -23 -16 2 -38 20 -18 20 -17 20 13 0 18 -1 31 -2
31 -2 -1 -11 -3 -20 -6z"/>
<path d="M9526 6619 c-9 -27 -10 -44 -2 -66 13 -41 26 -25 19 25 -7 53 -10 61
-17 41z"/>
<path d="M9585 6610 c-9 -15 5 -109 17 -116 16 -10 21 4 19 61 -1 45 1 54 14
49 8 -4 15 -1 15 5 0 14 -57 15 -65 1z"/>
<path d="M9484 6599 c-3 -6 -1 -16 5 -22 8 -8 11 -5 11 11 0 24 -5 28 -16 11z"/>
<path d="M10990 7273 c0 -81 5 -79 14 5 5 41 3 62 -4 62 -6 0 -10 -27 -10 -67z"/>
<path d="M11075 7277 c-10 -23 2 -204 15 -226 11 -19 12 105 1 189 -6 41 -10
50 -16 37z"/>
<path d="M11130 7278 c0 -9 5 -20 10 -23 13 -8 13 5 0 25 -8 13 -10 13 -10 -2z"/>
<path d="M11141 7200 c1 -19 -2 -47 -6 -62 -5 -21 -2 -29 14 -37 20 -11 21
-10 15 51 -7 68 -26 108 -23 48z"/>
<path d="M11212 7125 c-7 -14 -12 -39 -12 -55 0 -27 3 -30 30 -30 23 0 30 4
30 20 0 11 -4 20 -10 20 -5 0 -10 7 -10 15 0 8 -4 15 -9 15 -5 0 -7 9 -4 20 7
28 -2 25 -15 -5z"/>
<path d="M10960 7060 c0 -16 -4 -30 -10 -30 -5 0 -10 8 -10 18 0 11 -7 18 -20
18 -15 0 -20 -7 -20 -27 0 -30 34 -79 56 -79 8 0 14 -10 14 -25 0 -41 15 -28
29 23 16 64 6 132 -20 132 -14 0 -19 -7 -19 -30z"/>
<path d="M11031 7064 c0 -11 3 -14 6 -6 3 7 2 16 -1 19 -3 4 -6 -2 -5 -13z"/>
<path d="M11190 7011 c0 -11 4 -21 9 -21 18 0 21 18 6 30 -13 10 -15 9 -15 -9z"/>
<path d="M11247 7013 c-4 -3 -7 -15 -7 -25 0 -10 -7 -18 -16 -18 -9 0 -14 -6
-11 -12 2 -8 16 -12 34 -10 28 3 31 0 37 -31 3 -18 13 -42 21 -53 13 -18 14
-17 14 16 0 19 -6 46 -14 60 -8 14 -14 35 -15 48 0 14 -4 21 -11 16 -6 -3 -14
-1 -18 5 -4 6 -10 8 -14 4z"/>
<path d="M11381 6939 c-1 -27 -23 -54 -34 -42 -16 15 26 -101 51 -142 49 -81
51 -56 6 120 -12 50 -23 78 -23 64z"/>
<path d="M10950 6808 c0 -60 19 -87 21 -30 1 23 2 47 3 54 1 6 -5 13 -11 16
-9 2 -13 -9 -13 -40z"/>
<path d="M11608 6781 c-14 -28 -29 -47 -33 -41 -3 6 -11 8 -16 5 -15 -10 -10
-41 10 -59 18 -17 20 -17 30 2 19 35 42 113 39 129 -2 9 -14 -6 -30 -36z"/>
<path d="M11547 6683 c-11 -10 -8 -81 3 -88 6 -4 10 13 10 44 0 52 -1 56 -13
44z"/>
<path d="M13166 6859 c-4 -9 -6 -36 -4 -60 l4 -44 13 30 c9 21 10 39 3 60 -7
23 -11 26 -16 14z"/>
<path d="M12008 6757 c-5 -10 -8 -35 -8 -55 1 -30 2 -34 11 -19 6 9 9 34 7 55
-2 28 -5 32 -10 19z"/>
<path d="M11937 6753 c-10 -10 -8 -81 2 -87 12 -8 21 18 21 60 0 32 -8 42 -23
27z"/>
<path d="M12157 6746 c-3 -8 -16 -16 -29 -18 -19 -2 -24 -10 -26 -42 -4 -50 4
-72 22 -57 7 6 15 8 19 5 7 -7 13 17 22 79 6 46 2 61 -8 33z"/>
</g>
</svg>
